<?xml version="1.0" encoding="utf-8"?>
<!-- Generator: Adobe Illustrator 21.0.0, SVG Export Plug-In . SVG Version: 6.00 Build 0)  -->
<svg version="1.1" id="Capa_1" xmlns="http://www.w3.org/2000/svg" xmlns:xlink="http://www.w3.org/1999/xlink" x="0px" y="0px"
	 viewBox="0 0 560 392" style="enable-background:new 0 0 560 392;" xml:space="preserve">
<style type="text/css">
	.st0{fill:#C84000;}
</style>
<title>icon--hamburger-mobile</title>
<path class="st0" d="M532,168H28c-15.5,0-28,12.5-28,28s12.5,28,28,28h504c15.5,0,28-12.5,28-28S547.5,168,532,168z"/>
<path class="st0" d="M28,56h504c15.5,0,28-12.5,28-28S547.5,0,532,0H28C12.5,0,0,12.5,0,28S12.5,56,28,56z"/>
<path class="st0" d="M532,336H28c-15.5,0-28,12.5-28,28s12.5,28,28,28h504c15.5,0,28-12.5,28-28S547.5,336,532,336z"/>
</svg>
