<svg id="Capa_1" data-name="Capa 1" xmlns="http://www.w3.org/2000/svg" viewBox="0 0 560 392"><defs><style>.cls-1{fill:#010002;}</style></defs><title>icon--hamburger-mobile</title><path fill="rgb(102, 102, 102)" class="cls-1" d="M732,252H228a28,28,0,0,0,0,56H732a28,28,0,0,0,0-56Z" transform="translate(-200 -84)"/><path fill="rgb(102, 102, 102)" class="cls-1" d="M228,140H732a28,28,0,0,0,0-56H228a28,28,0,1,0,0,56Z" transform="translate(-200 -84)"/><path fill="rgb(102, 102, 102)" class="cls-1" d="M732,420H228a28,28,0,1,0,0,56H732a28,28,0,0,0,0-56Z" transform="translate(-200 -84)"/></svg>