<svg viewBox="0 0 24 24" xmlns="http://www.w3.org/2000/svg" xmlns:xlink="http://www.w3.org/1999/xlink">
<path fill="#FFF" d="M19.9,4.7C19.9,4.7,19.9,4.7,19.9,4.7C19.9,4.7,19.9,4.6,19.9,4.7C19.9,4.6,19.9,4.6,19.9,4.7
	c0-0.1,0-0.1,0-0.1c0,0,0,0,0,0c0,0,0,0,0-0.1c0,0,0,0,0,0c0,0,0,0,0-0.1c0,0,0,0,0,0c0,0,0,0,0,0l-4.2-4.2c0,0,0,0,0,0c0,0,0,0,0,0
	c0,0,0,0-0.1,0c0,0,0,0,0,0c0,0,0,0-0.1,0c0,0,0,0,0,0c0,0,0,0-0.1,0c0,0,0,0,0,0c0,0,0,0-0.1,0c0,0,0,0,0,0c0,0,0,0,0,0H4.6
	C4.3,0,4.1,0.2,4.1,0.5v20.1c0,0.3,0.2,0.5,0.5,0.5h7.1v2.5c0,0.2,0.1,0.3,0.2,0.4c0.1,0.1,0.3,0.1,0.5,0l1.8-1.1l1.8,1.1
	c0.1,0,0.2,0.1,0.2,0.1c0.1,0,0.2,0,0.2-0.1c0.1-0.1,0.2-0.2,0.2-0.4V21h2.8c0.3,0,0.5-0.2,0.5-0.5L19.9,4.7
	C19.9,4.7,19.9,4.7,19.9,4.7z M15.7,1.6l2.6,2.6h-2.6V1.6z M11.4,14.5c0-0.1-0.1-0.2-0.1-0.3c0,0,0.2-0.1,0.2-0.2
	c0.2-0.1,0.4-0.2,0.5-0.4c0.1-0.2,0.2-0.4,0.2-0.6c0-0.1,0.1-0.2,0.1-0.3c0,0,0.1,0,0.1,0c0.1,0,0.1,0,0.2,0c0.1,0,0.1,0,0.2,0
	c0.2,0,0.3,0,0.4-0.1c0.2-0.1,0.4-0.2,0.5-0.3c0.1-0.1,0.2-0.2,0.3-0.2c0.1,0,0.2,0.1,0.3,0.2c0.2,0.1,0.3,0.3,0.5,0.3
	c0.1,0,0.3,0.1,0.4,0.1c0.1,0,0.1,0,0.2,0c0.1,0,0.1,0,0.2,0c0.1,0,0.1,0,0.1,0c0,0.1,0.1,0.2,0.1,0.3c0,0.2,0.1,0.4,0.2,0.6
	c0.1,0.2,0.3,0.3,0.5,0.4c0.1,0,0.2,0.1,0.2,0.2c0,0.1-0.1,0.2-0.1,0.3c-0.1,0.2-0.1,0.4-0.1,0.6c0,0.2,0.1,0.5,0.1,0.6
	c0,0.1,0.1,0.2,0.1,0.3c0,0-0.2,0.1-0.2,0.2c-0.2,0.1-0.4,0.2-0.5,0.4c-0.1,0.2-0.2,0.4-0.2,0.6c0,0.1-0.1,0.2-0.1,0.3
	c0,0-0.1,0-0.1,0c-0.1,0-0.1,0-0.2,0c-0.1,0-0.1,0-0.2,0c-0.2,0-0.3,0-0.4,0.1c-0.2,0.1-0.4,0.2-0.5,0.3c-0.1,0.1-0.2,0.2-0.3,0.2
	c-0.1,0-0.2-0.1-0.3-0.2c-0.2-0.1-0.3-0.3-0.5-0.3c-0.1,0-0.3-0.1-0.4-0.1c-0.1,0-0.1,0-0.2,0c-0.1,0-0.1,0-0.2,0
	c-0.1,0-0.1,0-0.1,0c0-0.1-0.1-0.2-0.1-0.3c0-0.2-0.1-0.4-0.2-0.6c-0.1-0.2-0.3-0.3-0.5-0.4c-0.1,0-0.2-0.1-0.2-0.2
	c0-0.1,0.1-0.2,0.1-0.3c0.1-0.2,0.1-0.4,0.1-0.6C11.5,14.9,11.5,14.7,11.4,14.5z M15.7,22.7l-1.3-0.8c-0.2-0.1-0.3-0.1-0.5,0
	l-1.3,0.8v-4.2c0,0,0.1,0,0.1,0c0.1,0,0.1,0,0.2,0c0.1,0,0.1,0,0.1,0c0.1,0,0.2,0.1,0.2,0.2c0.2,0.2,0.5,0.4,0.9,0.4
	c0.4,0,0.6-0.2,0.9-0.4c0.1-0.1,0.2-0.2,0.2-0.2c0,0,0,0,0.1,0c0.1,0,0.1,0,0.2,0c0,0,0.1,0,0.1,0L15.7,22.7L15.7,22.7z M16.6,20.1
	v-2c0.1-0.2,0.2-0.4,0.2-0.6c0-0.1,0.1-0.2,0.1-0.3c0,0,0.2-0.1,0.2-0.2c0.2-0.1,0.5-0.3,0.6-0.7c0.1-0.3,0-0.7-0.1-0.9
	c0-0.1-0.1-0.2-0.1-0.3c0-0.1,0-0.2,0.1-0.3c0.1-0.3,0.2-0.6,0.1-0.9c-0.1-0.3-0.4-0.5-0.6-0.7C17.1,13.2,17,13.1,17,13
	c0,0-0.1-0.2-0.1-0.3c-0.1-0.3-0.2-0.6-0.4-0.8c-0.2-0.2-0.5-0.2-0.7-0.2c-0.1,0-0.1,0-0.2,0c-0.1,0-0.1,0-0.2,0c-0.1,0-0.1,0-0.1,0
	c-0.1,0-0.2-0.1-0.2-0.2c-0.2-0.2-0.5-0.4-0.9-0.4c-0.4,0-0.6,0.2-0.9,0.4c-0.1,0.1-0.2,0.2-0.2,0.2c0,0,0,0-0.1,0
	c-0.1,0-0.1,0-0.2,0c-0.1,0-0.1,0-0.2,0c-0.2,0-0.4,0-0.7,0.2c-0.3,0.2-0.4,0.5-0.4,0.8c0,0.1-0.1,0.2-0.1,0.3c0,0-0.2,0.1-0.2,0.2
	c-0.2,0.1-0.5,0.3-0.6,0.7c-0.1,0.3,0,0.7,0.1,0.9c0,0.1,0.1,0.2,0.1,0.3c0,0.1,0,0.2-0.1,0.3c-0.1,0.3-0.2,0.6-0.1,0.9
	c0.1,0.3,0.4,0.5,0.6,0.7c0.1,0.1,0.2,0.1,0.2,0.2c0,0,0.1,0.2,0.1,0.3c0,0.2,0.1,0.4,0.2,0.6v2H5V0.9h9.7v3.8
	c0,0.3,0.2,0.5,0.5,0.5H19v14.9H16.6z M6.9,5.2h6c0.3,0,0.5-0.2,0.5-0.5c0-0.3-0.2-0.5-0.5-0.5h-6c-0.3,0-0.5,0.2-0.5,0.5
	C6.4,5,6.6,5.2,6.9,5.2z M17.2,6.6H6.9c-0.3,0-0.5,0.2-0.5,0.5c0,0.3,0.2,0.5,0.5,0.5h10.3c0.3,0,0.5-0.2,0.5-0.5
	C17.7,6.8,17.5,6.6,17.2,6.6z M15.3,9H6.9C6.6,9,6.4,9.2,6.4,9.4c0,0.3,0.2,0.5,0.5,0.5h8.5c0.3,0,0.5-0.2,0.5-0.5
	C15.8,9.2,15.6,9,15.3,9z M17.2,9c-0.3,0-0.5,0.2-0.5,0.5s0.2,0.5,0.5,0.5c0.3,0,0.5-0.2,0.5-0.5S17.5,9,17.2,9z"/>
</svg>
