<?xml version="1.0" encoding="UTF-8"?>
<svg width="18px" height="24px" viewBox="0 0 18 24" version="1.1" xmlns="http://www.w3.org/2000/svg" xmlns:xlink="http://www.w3.org/1999/xlink">
    <!-- Generator: Sketch 62 (91390) - https://sketch.com -->
    <title>Mask</title>
    <desc>Created with Sketch.</desc>
    <defs>
        <path d="M17.322807,4.62690058 L13.3976608,0.701754386 C12.9766082,0.280701754 12.405848,0.0421052632 11.8116959,0.0421052632 L2.26315789,0.0421052632 C1.02339181,0.0467836257 0.0175438596,1.05263158 0.0175438596,2.29239766 L0.0175438596,21.754386 C0.0175438596,22.994152 1.02339181,24 2.26315789,24 L15.7368421,24 C16.9766082,24 17.9824561,22.994152 17.9824561,21.754386 L17.9824561,6.21754386 C17.9824561,5.62339181 17.7438596,5.04795322 17.322807,4.62690058 Z M15.554386,6.03508772 L11.994152,6.03508772 L11.994152,2.4748538 L15.554386,6.03508772 Z M2.26315789,21.754386 L2.26315789,2.29239766 L9.74853801,2.29239766 L9.74853801,7.15789474 C9.74853801,7.78011696 10.2491228,8.28070175 10.871345,8.28070175 L15.7368421,8.28070175 L15.7368421,21.754386 L2.26315789,21.754386 Z M13.9684211,15.0315789 C13.3976608,14.4701754 11.7695906,14.6245614 10.9555556,14.7274854 C10.1508772,14.2362573 9.6128655,13.5578947 9.23391813,12.5614035 C9.41637427,11.8081871 9.70643275,10.6619883 9.48654971,9.94152047 C9.29005848,8.71578947 7.71812865,8.8374269 7.49356725,9.66549708 C7.2877193,10.4187135 7.4748538,11.4666667 7.82105263,12.8046784 C7.35321637,13.922807 6.65614035,15.4245614 6.16491228,16.2853801 C5.22923977,16.7672515 3.96608187,17.5111111 3.77894737,18.4467836 C3.6245614,19.1859649 4.99532164,21.0292398 7.33918129,16.9871345 C8.3871345,16.6409357 9.52865497,16.2152047 10.5391813,16.0467836 C11.4233918,16.5239766 12.4573099,16.8421053 13.1497076,16.8421053 C14.3426901,16.8421053 14.4596491,15.522807 13.9684211,15.0315789 Z M4.7005848,18.671345 C4.93918129,18.0304094 5.84678363,17.2912281 6.12280702,17.0339181 C5.23391813,18.451462 4.7005848,18.7040936 4.7005848,18.671345 Z M8.51812865,9.75438596 C8.86432749,9.75438596 8.83157895,11.2561404 8.60233918,11.6631579 C8.39649123,11.0128655 8.40116959,9.75438596 8.51812865,9.75438596 L8.51812865,9.75438596 Z M7.37660819,16.1450292 C7.83040936,15.354386 8.21871345,14.4140351 8.53216374,13.5859649 C8.92046784,14.2923977 9.41637427,14.8584795 9.94035088,15.2467836 C8.96725146,15.4479532 8.12046784,15.8596491 7.37660819,16.1450292 L7.37660819,16.1450292 Z M13.5333333,15.9111111 C13.5333333,15.9111111 13.2994152,16.1918129 11.7883041,15.5461988 C13.4304094,15.4245614 13.7017544,15.7988304 13.5333333,15.9111111 Z" id="path-1"></path>
    </defs>
    <g id="000-Course-Info" stroke="none" stroke-width="1" fill="none" fill-rule="evenodd">
        <g id="course-info-teacher-desktop-1440" transform="translate(-105.000000, -977.000000)">
            <g id="Group-3" transform="translate(105.000000, 977.000000)">
                <g id="Group-4">
                    <g id="Regular/file-pdf">
                        <mask id="mask-2" fill="white">
                            <use xlink:href="#path-1"></use>
                        </mask>
                        <use id="Mask" fill="#FA6C06" xlink:href="#path-1"></use>
                    </g>
                </g>
            </g>
        </g>
    </g>
</svg>