<?xml version="1.0" encoding="UTF-8"?>
<svg width="15px" height="6px" viewBox="0 0 15 6" version="1.1" xmlns="http://www.w3.org/2000/svg" xmlns:xlink="http://www.w3.org/1999/xlink">
    <!-- Generator: Sketch 52.6 (67491) - http://www.bohemiancoding.com/sketch -->
    <title>long4</title>
    <desc>Created with Sketch.</desc>
    <g id="Symbols" stroke="none" stroke-width="1" fill="none" fill-rule="evenodd" opacity="0.0971912202">
        <g id="mobile/components/course-item" transform="translate(-217.000000, -28.000000)" fill="#000000">
            <g id="components/course-item">
                <g id="Group-5" transform="translate(0.000000, 1.000000)">
                    <g id="Group-4" transform="translate(134.000000, 21.000000)">
                        <g id="long4" transform="translate(84.000000, 6.000000)">
                            <path d="M13.9578,2.7956129 L10.8293,0.036 C10.7423,-0.0323225806 10.6473,-0.045483871 10.5441,-0.00338709677 C10.4409,0.0387096774 10.3892,0.114870968 10.3892,0.225290323 L10.3892,1.99141935 L0.2214,1.99141935 C0.1453,1.99141935 0.0828,2.01503226 0.034,2.06235484 C-0.0148,2.10967742 -0.0393,2.17016129 -0.0393,2.24370968 L-0.0393,3.75754839 C-0.0393,3.83109677 -0.0149,3.89158065 0.034,3.93880645 C0.0829,3.98603226 0.1454,4.00964516 0.2214,4.00964516 L10.3893,4.00964516 L10.3893,5.77577419 C10.3893,5.88106452 10.4411,5.95722581 10.5442,6.00445161 C10.6475,6.04664516 10.7425,6.03067742 10.8295,5.95722581 L13.958,3.16596774 C14.0123,3.11341935 14.0393,3.05041935 14.0393,2.97677419 C14.0393,2.90854839 14.0121,2.84816129 13.9578,2.7956129 L13.9578,2.7956129 Z" id="Shape"></path>
                        </g>
                    </g>
                </g>
            </g>
        </g>
    </g>
</svg>