<?xml version="1.0" encoding="UTF-8"?>
<svg width="73px" height="90px" viewBox="0 0 73 90" version="1.1" xmlns="http://www.w3.org/2000/svg" xmlns:xlink="http://www.w3.org/1999/xlink">
    <title>Untitled</title>
    <g id="Page-1" stroke="none" stroke-width="1" fill="none" fill-rule="evenodd">
        <g id="icon-image" fill="#000000" fill-rule="nonzero">
            <g id="Group">
                <path d="M71.6,20.1 C71.7,20.3 71.8,20.5 71.8,20.7 C71.8,20.4 71.7,20.2 71.6,20.1 Z" id="Path"></path>
                <path d="M71.9,20.6 C71.9,20.4 71.8,20.2 71.7,20 C71.6,19.9 71.6,19.8 71.5,19.8 L52.1,0.5 C51.8,0.2 51.4,0 50.9,0 L1.7,0 C0.8,0 0.1,0.7 0.1,1.6 L0.1,88.4 C0.1,89.3 0.8,90 1.7,90 L70.3,90 C71.2,90 71.9,89.3 71.9,88.4 L71.9,20.9 C71.9,20.8 71.9,20.7 71.9,20.6 Z M52.5,5.4 L66.4,19.3 L52.5,19.3 L52.5,5.4 Z M68.7,86.8 L3.3,86.8 L3.3,3.2 L49.3,3.2 L49.3,21 C49.3,21.9 50,22.6 50.9,22.6 L68.7,22.6 L68.7,86.8 L68.7,86.8 Z" id="Shape"></path>
            </g>
            <g id="Group" transform="translate(18.000000, 32.000000)">
                <path d="M34.4,0.7 L1.6,0.7 C0.7,0.7 0,1.4 0,2.3 L0,29.8 C0,30.7 0.7,31.4 1.6,31.4 L34.5,31.4 C35.4,31.4 36.1,30.7 36.1,29.8 L36.1,2.3 C36,1.4 35.3,0.7 34.4,0.7 Z M3.1,3.9 L32.8,3.9 L32.8,17.1 L26.1,10.4 C25.5,9.8 24.4,9.8 23.8,10.4 L13.5,20.8 L10.4,17.7 C9.8,17.1 8.7,17.1 8.1,17.7 L3.1,22.7 L3.1,3.9 Z M32.9,28.2 L3.1,28.2 L3.1,27.2 L9.3,21 L12.4,24.1 C13,24.7 14.1,24.7 14.7,24.1 L25,13.8 L32.8,21.6 L32.8,28.2 L32.9,28.2 Z" id="Shape"></path>
                <path d="M11.2,15.7 C8.6,15.7 6.5,13.6 6.5,11 C6.5,8.4 8.6,6.3 11.2,6.3 C13.8,6.3 15.9,8.4 15.9,11 C15.9,13.6 13.8,15.7 11.2,15.7 Z M11.2,9.5 C10.4,9.5 9.7,10.2 9.7,11 C9.7,11.8 10.4,12.5 11.2,12.5 C12,12.5 12.7,11.8 12.7,11 C12.7,10.2 12,9.5 11.2,9.5 Z" id="Shape"></path>
            </g>
        </g>
    </g>
</svg>