<?xml version="1.0" encoding="UTF-8"?>
<svg width="72px" height="92px" viewBox="0 0 72 92" version="1.1" xmlns="http://www.w3.org/2000/svg" xmlns:xlink="http://www.w3.org/1999/xlink">
    <title>Untitled</title>
    <g id="Page-1" stroke="none" stroke-width="1" fill="none" fill-rule="evenodd">
        <g id="icon-pdf" fill="#000000" fill-rule="nonzero">
            <g id="Group">
                <path d="M51.8,1.3 C51.9,1.4 52,1.4 52,1.5 L52,1.5 C52,1.4 51.9,1.3 51.8,1.3 Z" id="Path"></path>
                <path d="M71.8,21.5 C71.8,21.4 71.8,21.4 71.7,21.3 C71.6,21.1 71.5,20.9 71.4,20.8 L52.1,1.5 C52,1.4 52,1.4 51.9,1.3 C51.8,1.2 51.7,1.2 51.6,1.2 C51.5,1.2 51.5,1.1 51.4,1.1 C51.2,1 51.1,1 50.9,1 L1.7,1 C0.8,1 0.1,1.7 0.1,2.6 L0.1,89.4 C0.1,90.3 0.8,91 1.7,91 L70.3,91 C71.2,91 71.9,90.3 71.9,89.4 L71.9,21.9 C71.9,21.8 71.9,21.7 71.8,21.5 Z M52.5,6.4 L66.4,20.3 L52.5,20.3 L52.5,6.4 Z M68.7,87.8 L3.3,87.8 L3.3,4.2 L49.3,4.2 L49.3,22 C49.3,22.9 50,23.6 50.9,23.6 L68.7,23.6 L68.7,87.8 L68.7,87.8 Z" id="Shape"></path>
            </g>
            <path d="M51.7,54.1 C51,52.8 49.6,52.2 47.2,52.2 C46,52.2 44.6,52.3 43.1,52.6 C40.9,50.2 38.6,46.8 36.9,43.4 C38.7,35.9 37.4,34.2 36.9,33.6 C36.3,32.9 35.5,32.5 34.6,32.5 C34.2,32.5 33.9,32.6 33.5,32.7 C32.5,33 31.8,33.7 31.4,34.7 C30.6,36.6 31.1,39.7 33,43.8 C31.9,48.1 30.1,53.1 28.2,57.3 C23,59.7 20.4,62 20.1,64.5 C20,65.3 20.1,66.8 21.9,68.2 C22.4,68.6 23,68.8 23.6,68.8 C25,68.8 26.4,67.8 27.9,65.7 C28.9,64.3 29.9,62.5 31,60.2 C34.3,58.8 38.3,57.5 41.8,56.7 C43.9,58.7 45.9,59.6 47.6,59.6 C49,59.6 50.3,58.9 51.1,57.7 C52.3,56.1 52.1,54.9 51.7,54.1 Z M23.6,65.8 C23,65.3 23,65 23,64.9 C23.1,64.2 24.2,62.9 27,61.3 C24.9,65.2 23.8,65.7 23.6,65.8 Z M34.1,35.9 C34.2,35.7 34.3,35.6 34.4,35.6 C34.5,35.6 34.5,35.6 34.5,35.6 C34.7,35.9 34.9,37.1 34.5,39.9 C34,38.2 33.7,36.7 34.1,35.9 Z M31.7,56.7 C33,53.5 34.3,50 35.2,46.7 C36.7,49.4 38.5,51.9 40.2,54 C37.4,54.7 34.4,55.6 31.7,56.7 Z M48.7,56 C48.3,56.6 47.9,56.6 47.6,56.6 C46.9,56.6 45.9,56.1 44.9,55.3 C45.8,55.2 46.6,55.1 47.2,55.1 C48.4,55.1 48.8,55.3 49,55.4 C48.9,55.6 48.9,55.8 48.7,56 Z" id="Shape"></path>
        </g>
    </g>
</svg>