<svg id="Livello_1" data-name="Livello 1" xmlns="http://www.w3.org/2000/svg" viewBox="0 0 66.98 54.36">
  <title>icon-categorize</title>
  <path d="M4,49A5.79,5.79,0,0,0,9.73,54.7H57.24A5.79,5.79,0,0,0,63,49L67,21.84a1,1,0,0,0,0-.14A6.45,6.45,0,0,0,63.58,16V13.58a6,6,0,0,0-3.32-5.39V5.82A5.49,5.49,0,0,0,54.77.33H10.21A5.49,5.49,0,0,0,4.72,5.82V8.19A6,6,0,0,0,1.4,13.58v4.11a6.41,6.41,0,0,0-1.4,4,1,1,0,0,0,0,.14ZM6.72,5.82a3.49,3.49,0,0,1,3.48-3.48H54.77a3.49,3.49,0,0,1,3.48,3.48V7.59a6,6,0,0,0-.72,0H7.44a6,6,0,0,0-.72,0ZM3.4,13.58a4,4,0,0,1,4-4H57.53a4,4,0,0,1,4,4v1.76a6.43,6.43,0,0,0-1-.09H27.36V14.08a1,1,0,0,0-1-1H15.27a1,1,0,0,0-1,1v1.16H6.44a6.4,6.4,0,0,0-3,.77Zm22,2.67V33l-4-2.87a1,1,0,0,0-1.17,0l-4,2.87V15.08h9.1v1.16h0Zm-18.92,1h7.82V35a1,1,0,0,0,1.59.81l5-3.6,5,3.6A1,1,0,0,0,27.36,35V17.25H60.53A4.45,4.45,0,0,1,65,21.62L61,48.77a1,1,0,0,0,0,.14,3.79,3.79,0,0,1-3.78,3.78H9.73A3.79,3.79,0,0,1,6,48.91a1,1,0,0,0,0-.14L2,21.62A4.45,4.45,0,0,1,6.44,17.25Z" transform="translate(0 -0.33)"/>
</svg>
