<?xml version="1.0" encoding="UTF-8"?>
<svg width="72px" height="90px" viewBox="0 0 72 90" version="1.1" xmlns="http://www.w3.org/2000/svg" xmlns:xlink="http://www.w3.org/1999/xlink">
    <title>Untitled 2</title>
    <g id="Page-1" stroke="none" stroke-width="1" fill="none" fill-rule="evenodd">
        <g id="icon-chart" fill="#000000" fill-rule="nonzero">
            <path d="M71.4,19.8 L52.1,0.5 C51.8,0.2 51.4,0 50.9,0 L1.7,0 C0.8,0 0.1,0.7 0.1,1.6 L0.1,88.4 C0.1,89.3 0.8,90 1.7,90 L70.3,90 C71.2,90 71.9,89.3 71.9,88.4 L71.9,20.9 C71.9,20.5 71.7,20.1 71.4,19.8 Z M52.5,5.4 L66.4,19.3 L52.5,19.3 L52.5,5.4 Z M68.7,86.8 L3.3,86.8 L3.3,3.2 L49.3,3.2 L49.3,21 C49.3,21.9 50,22.6 50.9,22.6 L68.7,22.6 L68.7,86.8 L68.7,86.8 Z" id="Shape"></path>
            <g id="Group" transform="translate(19.000000, 33.000000)">
                <path d="M19.1,0.3 C18.2,0.3 17.5,1 17.5,1.9 L17.5,14.8 C17.5,15.7 18.2,16.4 19.1,16.4 L32,16.4 C32.9,16.4 33.6,15.7 33.6,14.8 C33.6,6.8 27.1,0.3 19.1,0.3 Z M20.7,13.3 L20.7,3.7 C25.7,4.4 29.6,8.4 30.3,13.3 L20.7,13.3 Z" id="Shape"></path>
                <path d="M27.6,17.7 L16.2,17.7 L16.2,6.4 C16.2,5.5 15.5,4.8 14.6,4.8 C6.6,4.8 0.1,11.3 0.1,19.3 C0.1,27.3 6.6,33.8 14.6,33.8 C22.6,33.8 29.1,27.3 29.1,19.3 C29.2,18.5 28.4,17.7 27.6,17.7 Z M14.6,30.7 C8.4,30.7 3.3,25.6 3.3,19.4 C3.3,13.7 7.5,9 13,8.2 L13,19.4 C13,20.3 13.7,21 14.6,21 L25.8,21 C25.1,26.4 20.3,30.7 14.6,30.7 Z" id="Shape"></path>
            </g>
        </g>
    </g>
</svg>