<svg id="Layer_1" data-name="Layer 1" xmlns="http://www.w3.org/2000/svg" viewBox="0 0 492.31 492.31">
    <title>calendar-check</title>
    <path fill="rgba(153, 153, 153, 1)" d="M436.41,38.77a28.93,28.93,0,0,0-57.85,0V56.06H133.44V38.77a28.92,28.92,0,0,0-57.85,0V56.06H9.85v446.1H502.15V56.06H436.41Zm-38.16,0a9.23,9.23,0,0,1,18.47,0v43.6H398.25Zm-303,0a9.23,9.23,0,1,1,18.46,0v43.6H95.28ZM29.54,482.46V183.25H482.46V482.46ZM482.46,75.75v87.81H29.54V75.75H75.59v26.31h57.85V75.75H378.56v26.31h57.85V75.75Z"
          transform="translate(-9.85 -9.85)"/>
    <polygon points="209.85 374.63 144.24 308.36 130.25 322.2 209.85 402.63 362.06 248.86 348.07 235.01 209.85 374.63"/>
</svg>