<svg id="Modalità_Isolamento" data-name="Modalità Isolamento" xmlns="http://www.w3.org/2000/svg"
     viewBox="0 0 390.4 345.84">
    <defs>
        <style>.cls-1{fill:#231f20;}</style>
    </defs>
    <title>icon--help-desk</title>
    <path fill="rgb(255, 108, 0)"
          d="M616.56,157c-36.8-32.24-85.52-50-137.36-50s-100.56,17.76-137.36,50C304.56,189.72,284,233.32,284,279.88c0,36.72,13.36,72.72,37.76,102.24a57.13,57.13,0,0,1-19.68,22.24,19.33,19.33,0,0,0,7.84,35.36c16.48,2.32,48.64,3.44,78.48-14.4a14.4,14.4,0,1,0-14.8-24.72A85.1,85.1,0,0,1,336.48,412a92.13,92.13,0,0,0,15.6-27.44,14.5,14.5,0,0,0-2.88-14.8c-23.84-25.76-36.4-56.88-36.4-89.84,0-79.44,74.64-144.08,166.4-144.08s166.4,64.64,166.4,144.08S571,424,479.2,424a189.21,189.21,0,0,1-39.36-4.08,14.44,14.44,0,0,0-6,28.24,220.11,220.11,0,0,0,45.36,4.72c51.76,0,100.56-17.76,137.36-50,37.28-32.8,57.84-76.4,57.84-123S653.84,189.72,616.56,157Zm0,0"
          transform="translate(-284 -107)"/>
    <path fill="rgb(255, 108, 0)"
          d="M460.3,299.27v-7.59a33.64,33.64,0,0,1,4.2-17.12q4.2-7.28,15.38-15.48,10.77-7.69,14.2-12.51a18.12,18.12,0,0,0,3.43-10.77q0-6.66-4.92-10.15t-13.74-3.49q-15.38,0-35.07,10l-11.18-22.46a97.69,97.69,0,0,1,48.5-12.82q21.12,0,33.58,10.15t12.46,27.07q0,11.28-5.13,19.48T502.55,272.1q-9.84,7.28-12.46,11.07t-2.61,9.95v6.15ZM457,334.34q0-8.61,4.61-13t13.43-4.41q8.51,0,13.18,4.51t4.67,12.92q0,8.1-4.72,12.77t-13.12,4.67q-8.61,0-13.33-4.56T457,334.34Z"
          transform="translate(-284 -107)"/>
</svg>