<svg id="Livello_1" data-name="Livello 1" xmlns="http://www.w3.org/2000/svg" viewBox="0 0 265.84 390.4">
    <title>icon--profile</title>
    <path d="M577.72,289.48a14.38,14.38,0,0,0-21.2,19.44A104.06,104.06,0,0,1,584,379.4v61.84a5.33,5.33,0,0,1-5.28,5.28H381a5.33,5.33,0,0,1-5.28-5.28V379.4A104.19,104.19,0,0,1,479.8,275.32,95,95,0,1,0,396,225.24a14.41,14.41,0,1,0,25.36-13.68,66.42,66.42,0,1,1,58.56,35A133,133,0,0,0,347,379.48v61.84a34.11,34.11,0,0,0,34.08,34.08H578.76a34.11,34.11,0,0,0,34.08-34.08V379.48a132.64,132.64,0,0,0-35.12-90Zm0,0"
          transform="translate(-347 -85)"/>
</svg>