<svg xmlns="http://www.w3.org/2000/svg" xmlns:xlink="http://www.w3.org/1999/xlink" version="1.1" x="0px" y="0px" viewBox="0 0 32 40" style="enable-background:new 0 0 32 32;" xml:space="preserve"><path d="M30.58,3.96H1.42c-0.21,0-0.38,0.17-0.38,0.38V6c0,0.21,0.17,0.38,0.38,0.38h0.46V23.5c0,0.21,0.17,0.38,0.38,0.38h13.38  v1.83c-0.48,0.16-0.83,0.6-0.83,1.13c0,0.67,0.54,1.21,1.21,1.21s1.21-0.54,1.21-1.21c0-0.53-0.35-0.97-0.83-1.13v-1.83h13.38  c0.21,0,0.38-0.17,0.38-0.38V6.37h0.46c0.21,0,0.38-0.17,0.38-0.38V4.33C30.96,4.13,30.79,3.96,30.58,3.96z M16.46,26.83  c0,0.25-0.21,0.46-0.46,0.46s-0.46-0.21-0.46-0.46s0.21-0.46,0.46-0.46S16.46,26.58,16.46,26.83z M29.38,23.12H2.63V6.37h26.75  V23.12z M30.21,5.62h-0.46H2.25H1.79V4.71h28.42V5.62z"/><path d="M13.5,18.87c0.06,0,0.12-0.01,0.17-0.04l7.5-3.75c0.13-0.06,0.21-0.19,0.21-0.33s-0.08-0.27-0.21-0.33l-7.5-3.75  c-0.12-0.06-0.25-0.05-0.37,0.02c-0.11,0.07-0.18,0.19-0.18,0.32v7.5c0,0.13,0.07,0.25,0.18,0.32  C13.36,18.86,13.43,18.87,13.5,18.87z M13.88,11.61l6.29,3.14l-6.29,3.14V11.61z"/><path d="M16,22.21c4.11,0,7.46-3.35,7.46-7.46c0-4.11-3.35-7.46-7.46-7.46s-7.46,3.35-7.46,7.46C8.54,18.86,11.89,22.21,16,22.21z   M16,8.04c3.7,0,6.71,3.01,6.71,6.71S19.7,21.46,16,21.46s-6.71-3.01-6.71-6.71S12.3,8.04,16,8.04z"/><text x="0" y="47" fill="#000000" font-size="5px" font-weight="bold" font-family="'Helvetica Neue', Helvetica, Arial-Unicode, Arial, Sans-serif">Created by barurezeki</text><text x="0" y="52" fill="#000000" font-size="5px" font-weight="bold" font-family="'Helvetica Neue', Helvetica, Arial-Unicode, Arial, Sans-serif">from the Noun Project</text></svg>