<svg id="Capa_1" data-name="Capa 1" xmlns="http://www.w3.org/2000/svg" viewBox="0 0 550.35 560">
    <title>icon--admin</title>
    <path fill="rgb(153, 153, 153)" d="M747.33,413.85l-13.94-2.67a19,19,0,0,1-11.75-29.94l8.76-11.93a9.65,9.65,0,0,0-1-12.54l-18.91-18.9a9.68,9.68,0,0,0-12.24-1.17l-11.75,8A19,19,0,0,1,657,331.77l-2.25-14.63a9.64,9.64,0,0,0-9.53-8.18H618.5a9.66,9.66,0,0,0-9.48,7.84l-3.46,18A19,19,0,0,1,576.2,347L561,336.7a9.68,9.68,0,0,0-12.24,1.17l-18.91,18.9a9.65,9.65,0,0,0-1,12.54l8.76,11.93a19,19,0,0,1-11.75,29.94L512,413.86a9.67,9.67,0,0,0-7.84,9.48v26.74a9.65,9.65,0,0,0,8.19,9.54l14.63,2.25a19,19,0,0,1,12.87,29.5l-8,11.75A9.66,9.66,0,0,0,533,515.36l18.9,18.91a9.68,9.68,0,0,0,12.54,1l11.93-8.76a19,19,0,0,1,29.94,11.75L609,552.18a9.67,9.67,0,0,0,9.49,7.82h26.74a9.65,9.65,0,0,0,9.54-8.19l1.58-10.28a19,19,0,0,1,30.07-12.46l8.39,6.16a9.64,9.64,0,0,0,12.54-1l18.9-18.91a9.66,9.66,0,0,0,1.17-12.24l-8-11.75a19,19,0,0,1,12.87-29.5L747,459.62a9.66,9.66,0,0,0,8.19-9.54V423.33A9.69,9.69,0,0,0,747.33,413.85Zm-11.47,28-6.44,1a38.34,38.34,0,0,0-25.91,59.4l3.49,5.15-7.42,7.42-1.71-1.26a38.34,38.34,0,0,0-60.58,25.08l-.32,2.1H626.49l-1.17-6.11A38.35,38.35,0,0,0,565,510.89l-5.25,3.85-7.42-7.42,3.49-5.15a38.34,38.34,0,0,0-25.91-59.4l-6.44-1V431.32l6.11-1.17a38.35,38.35,0,0,0,23.68-60.34l-3.85-5.25,7.42-7.42,8.58,5.81a38.34,38.34,0,0,0,59.16-24.5l1.94-10.18H637l1,6.44a38.34,38.34,0,0,0,59.4,25.91l5.15-3.49,7.42,7.42-3.85,5.25a38.35,38.35,0,0,0,23.68,60.34l6.11,1.17V441.8Z"
          transform="translate(-204.83)"/>
    <path fill="rgb(153, 153, 153)" d="M629.66,386.21a48.28,48.28,0,1,0,48.28,48.28A48.33,48.33,0,0,0,629.66,386.21Zm0,77.24a29,29,0,1,1,29-29A29,29,0,0,1,629.66,463.45Z"
          transform="translate(-204.83)"/>
    <path fill="rgb(153, 153, 153)" d="M470.34,511.72c-6.12,0-12.22-.3-18.3-.75-1.05-.08-2.1-.14-3.15-.24-6.12-.54-12.21-1.26-18.25-2.25l-.81-.14A245.29,245.29,0,0,1,392.28,499l-1.14-.39c-6.07-2.07-12.08-4.34-18-6.88l-.13-.06c-5.58-2.4-11.06-5.07-16.46-7.88-.7-.37-1.42-.71-2.11-1.09-4.93-2.64-9.76-5.48-14.52-8.46q-2.11-1.33-4.2-2.69c-4.38-2.87-8.71-5.85-12.92-9-.43-.33-.85-.68-1.28-1l.93-.52,76.34-41.64a40.83,40.83,0,0,0,21.29-35.86V348.7L417.87,346c-.21-.24-21.09-25.63-29-60l-.88-3.82L384.72,280a16,16,0,0,1-7.42-13.44V232.37a15.77,15.77,0,0,1,5.38-11.81l3.19-2.88V163.91l-.09-1.26c0-.23-2.88-23.45,13.48-42.1,14-15.91,37.89-24,71.09-24s56.93,8,70.93,23.81c16.34,18.45,13.66,42.11,13.64,42.3l-.09,55,3.19,2.88a15.79,15.79,0,0,1,5.38,11.81v34.23A16.13,16.13,0,0,1,552,281.82a9.65,9.65,0,1,0,5.7,18.44,35.13,35.13,0,0,0,25-33.65V232.39a35.13,35.13,0,0,0-8.56-22.87V164.46c.5-5,2.28-33.29-18.18-56.62-17.79-20.31-46.6-30.6-85.61-30.6s-67.82,10.28-85.61,30.59c-20.46,23.33-18.68,51.62-18.18,56.62v45.06A35.18,35.18,0,0,0,358,232.38v34.23a35.12,35.12,0,0,0,12.94,27.24c7.82,30.64,23.92,53.83,29.86,61.69v27.94a21.54,21.54,0,0,1-11.22,18.9L313.23,444a69.78,69.78,0,0,0-7.26,4.6,245.62,245.62,0,0,1-81.83-183.1c0-135.76,110.45-246.21,246.21-246.21S716.55,129.76,716.55,265.52a9.66,9.66,0,0,0,19.31,0C735.86,119.12,616.75,0,470.34,0S204.83,119.12,204.83,265.52A264.85,264.85,0,0,0,291,461.11l-.25.22,8.61,7.26c.56.47,1.17.86,1.72,1.32,4.58,3.79,9.32,7.4,14.14,10.88,1.56,1.13,3.13,2.27,4.72,3.36q7.73,5.33,15.85,10.12c1.18.7,2.37,1.37,3.55,2,5.92,3.37,12,6.55,18.15,9.46l1.37.62a263.13,263.13,0,0,0,64.22,20.32l1.78.32c7,1.21,14.06,2.17,21.21,2.82l2.62.2c7.14.59,14.34,1,21.64,1a9.66,9.66,0,1,0,0-19.31Z"
          transform="translate(-204.83)"/>
</svg>