<svg id="Capa_1" data-name="Capa 1" xmlns="http://www.w3.org/2000/svg" viewBox="0 0 531.03 531.03">
    <title>icon--ghost</title>
    <path fill="rgb(153, 153, 153)" d="M306,448.62a245.62,245.62,0,0,1-81.83-183.1c0-135.76,110.45-246.21,246.21-246.21S716.55,129.76,716.55,265.52a9.66,9.66,0,0,0,19.31,0C735.86,119.12,616.75,0,470.34,0S204.83,119.12,204.83,265.52A264.85,264.85,0,0,0,291,461.11l-.25.22,8.61,7.26c.56.47,1.17.86,1.72,1.32,4.58,3.79,9.32,7.4,14.14,10.88,1.56,1.13,3.13,2.27,4.72,3.36q7.73,5.33,15.85,10.12c1.18.7,2.37,1.37,3.55,2,5.92,3.37,12,6.55,18.15,9.46l1.37.62a263.13,263.13,0,0,0,64.22,20.32l1.78.32c7,1.21,14.06,2.17,21.21,2.82l2.62.2c7.14.59,14.34,1,21.64,1a9.66,9.66,0,1,0,0-19.31c-6.12,0-12.22-.3-18.3-.75-1.05-.08-2.1-.14-3.15-.24-6.12-.54-12.21-1.26-18.25-2.25l-.81-.14A245.29,245.29,0,0,1,392.28,499l-1.14-.39c-6.07-2.07-12.08-4.34-18-6.88l-.13-.06c-5.58-2.4-11.06-5.07-16.46-7.88-.7-.37-1.42-.71-2.11-1.09-4.93-2.64-9.76-5.48-14.52-8.46q-2.11-1.33-4.2-2.69c-4.38-2.87-8.71-5.85-12.92-9-.43-.33-.85-.68-1.28-1"
          transform="translate(-204.83)"/>
    <path fill="rgb(153, 153, 153)" d="M470.34,82.17c-73.16,0-132.67,59.52-132.67,132.68V405.18c0,3.48.16,7.12.5,11.12a10.17,10.17,0,0,0,10.12,9.33l.56,0a10.14,10.14,0,0,0,8.66-4.18l32.44-44.66,32.43,44.67c.09.13.21.21.31.33a9,9,0,0,0,1,1.07c.22.21.44.42.67.61l.28.24a9.17,9.17,0,0,0,.86.5c.26.15.5.32.76.44a10.39,10.39,0,0,0,1.79.64c.1,0,.19.07.28.09a10,10,0,0,0,2.1.25l.19,0c.12,0,.24-.05.37-.05a10.2,10.2,0,0,0,2.32-.36c.19,0,.38-.08.56-.14a10.09,10.09,0,0,0,2.46-1.25c.08-.06.18-.08.26-.13s.28-.27.43-.38a9,9,0,0,0,.74-.66,10.39,10.39,0,0,0,.76-.86c.11-.13.23-.23.33-.36l32.43-44.66,32.44,44.67c.09.13.22.22.32.34a9.32,9.32,0,0,0,1,1c.23.21.46.43.7.62s.17.17.27.24c.27.19.57.33.84.49a8.91,8.91,0,0,0,.78.45,10.2,10.2,0,0,0,1.79.64c.1,0,.18.07.28.09a10,10,0,0,0,2.1.25l.19,0c.12,0,.24-.05.37-.05a10.25,10.25,0,0,0,2.32-.36c.19,0,.38-.08.56-.14a10.07,10.07,0,0,0,2.47-1.25c.08-.06.18-.08.26-.13s.28-.26.43-.38.51-.43.74-.66a9.81,9.81,0,0,0,.75-.84c.11-.13.24-.24.34-.38l32.44-44.7,31.64,43.35a10.17,10.17,0,0,0,18.36-5.24c.21-2.83.41-6.2.41-9.66V214.84C603,141.69,543.5,82.17,470.34,82.17ZM582.67,383.44l-21.88-30a10.16,10.16,0,0,0-8.21-4.18h0a10.19,10.19,0,0,0-8.23,4.2l-32.43,44.67-32.43-44.67a10.17,10.17,0,0,0-16.46,0L430.6,398.15l-32.42-44.67a10.18,10.18,0,0,0-16.47,0L358,386.12V214.84a112.33,112.33,0,1,1,224.66,0v168.6Z"
          transform="translate(-204.83)"/>
    <path fill="rgb(153, 153, 153)" d="M414.08,182.11a29.53,29.53,0,1,0,29.53,29.53A29.56,29.56,0,0,0,414.08,182.11Zm0,38.71a9.19,9.19,0,1,1,9.19-9.19A9.2,9.2,0,0,1,414.08,220.82Z"
          transform="translate(-204.83)"/>
    <path fill="rgb(153, 153, 153)" d="M528.45,182.11A29.53,29.53,0,1,0,558,211.64,29.56,29.56,0,0,0,528.45,182.11Zm0,38.71a9.19,9.19,0,1,1,9.19-9.19A9.2,9.2,0,0,1,528.45,220.82Z"
          transform="translate(-204.83)"/>
</svg>