<svg id="Capa_1" data-name="Capa 1" xmlns="http://www.w3.org/2000/svg" viewBox="0 0 560 560">
    <title>icon--guest</title>
    <path fill="rgb(153, 153, 153)" d="M683.29,468.89l66-33L569.72,369.73l66.16,179.58,33-66,69.22,69.22a10.18,10.18,0,0,0,14.4-14.4ZM604.1,404.1l94,34.64-39.58,19.78-19.78,39.58Z"
          transform="translate(-200)"/>
    <path fill="rgb(153, 153, 153)" d="M480,0C325.61,0,200,125.61,200,280a279.29,279.29,0,0,0,90.88,206.26l-.26.23,9.08,7.66c.59.5,1.23.91,1.81,1.39,4.83,4,9.83,7.8,14.92,11.47,1.65,1.19,3.3,2.39,5,3.54q8.16,5.62,16.72,10.67c1.24.73,2.49,1.45,3.75,2.16,6.24,3.55,12.62,6.9,19.14,10l1.45.65a277.48,277.48,0,0,0,67.72,21.43l1.87.34c7.37,1.27,14.82,2.29,22.37,3,.92.08,1.84.13,2.76.21,7.52.62,15.12,1,22.82,1a10.18,10.18,0,0,0,0-20.36c-6.46,0-12.89-.32-19.29-.79-1.11-.08-2.22-.15-3.32-.25-6.46-.57-12.88-1.33-19.24-2.37l-.86-.15a258.67,258.67,0,0,1-39.61-9.89l-1.2-.41c-6.4-2.18-12.74-4.58-19-7.26l-.13-.06c-5.89-2.54-11.66-5.35-17.36-8.31-.74-.39-1.5-.75-2.23-1.15-5.2-2.78-10.29-5.78-15.31-8.92q-2.23-1.41-4.43-2.84c-4.62-3-9.18-6.17-13.62-9.5-.46-.35-.9-.71-1.35-1.06l1-.55,80.51-43.91A43.06,43.06,0,0,0,427,404.39V367.72l-2.34-2.83c-.22-.25-22.24-27-30.56-63.29l-.93-4-3.47-2.25a16.87,16.87,0,0,1-7.83-14.17V245a16.63,16.63,0,0,1,5.67-12.45l3.36-3V172.85l-.09-1.33c0-.24-3-24.73,14.21-44.39,14.72-16.78,40-25.3,75-25.3s60,8.45,74.8,25.11c17.23,19.46,14.41,44.4,14.39,44.61l-.09,58,3.36,3a16.65,16.65,0,0,1,5.67,12.45v36.09a17,17,0,0,1-12,16,10.18,10.18,0,1,0,6,19.45,37,37,0,0,0,26.38-35.48V245.07a37,37,0,0,0-9-24.12V173.43c.53-5.29,2.4-35.11-19.17-59.71C551.52,92.3,521.14,81.45,480,81.45s-71.52,10.84-90.28,32.26c-21.58,24.6-19.7,54.43-19.17,59.71v47.52a37.1,37.1,0,0,0-9,24.12v36.09a37,37,0,0,0,13.64,28.72c8.25,32.31,25.22,56.76,31.49,65.05v29.47a22.71,22.71,0,0,1-11.83,19.94l-80.51,43.91a73.58,73.58,0,0,0-7.66,4.85A259,259,0,0,1,220.36,280C220.36,136.83,336.83,20.36,480,20.36S739.64,136.83,739.64,280A10.18,10.18,0,0,0,760,280C760,125.61,634.39,0,480,0Z"
          transform="translate(-200)"/>
</svg>