<svg id="Capa_1" data-name="Capa 1" xmlns="http://www.w3.org/2000/svg" viewBox="0 0 560.01 538.51">
    <title>icon--tutor</title>
    <path fill="rgb(153, 153, 153)" d="M756.49,428.27c-34.41-52.55-80.35-82.2-129.83-84.12a68.94,68.94,0,0,0-8-.51,68.2,68.2,0,0,0-14,1.46c-45,5.8-86.47,34.78-118.16,83.17l-4.56,7,3.52,5.37c35.59,54.36,83.51,84.29,135,84.29s99.36-29.94,135-84.29l4.56-7Zm-89.72-17A48.06,48.06,0,1,1,608.4,364.4a111,111,0,0,1,13.15-.85l.59,0A48,48,0,0,1,666.77,411.29Zm-46.28,94c-43,0-83.59-24.84-115-70.11,15.26-22.39,32.78-39.84,51.71-51.94a67.63,67.63,0,1,0,120.6-4.78c21.58,11.82,41.53,30.42,58.71,55.2C705,479.92,663.93,505.31,620.49,505.31Z"
          transform="translate(-200 -10.75)"/>
    <path fill="rgb(153, 153, 153)" d="M469.25,529.68c-6.21,0-12.4-.3-18.55-.76-1.07-.08-2.13-.15-3.19-.24-6.21-.55-12.4-1.28-18.53-2.29l-.75-.14A250.11,250.11,0,0,1,390,516.7l-1-.34a250.9,250.9,0,0,1-35.26-15.12c-.66-.34-1.32-.67-2-1-5-2.69-10-5.61-14.83-8.65-1.4-.88-2.78-1.77-4.16-2.67-4.46-2.92-8.86-6-13.15-9.16-.44-.33-.86-.69-1.3-1l.95-.53L396.7,436a41.42,41.42,0,0,0,21.58-36.36V364.34L416,361.61c-.21-.24-21.31-25.79-29.36-60.85l-.89-3.88-3.34-2.16a16.23,16.23,0,0,1-7.53-13.63V246.38a16,16,0,0,1,5.45-12l3.23-2.92V177l-.09-1.28c0-.23-2.92-23.78,13.67-42.69,14.16-16.15,38.41-24.34,72.09-24.34s57.74,8.13,71.93,24.14C557.73,151.5,555,175.49,555,175.68l-.09,55.82,3.23,2.92a16,16,0,0,1,5.45,12V281.1A16.15,16.15,0,0,1,552,296.51a9.79,9.79,0,0,0,5.77,18.72,35.64,35.64,0,0,0,25.37-34.13V246.39a35.69,35.69,0,0,0-8.67-23.2V177.51c.51-5.09,2.31-33.76-18.44-57.41-18-20.59-47.25-31-86.82-31s-68.77,10.43-86.82,31c-20.75,23.66-18.95,52.34-18.44,57.41v45.69a35.69,35.69,0,0,0-8.67,23.2v34.71a35.64,35.64,0,0,0,13.11,27.62c7.93,31.07,24.24,54.59,30.27,62.56v28.34a21.84,21.84,0,0,1-11.38,19.17L309.89,461a71.49,71.49,0,0,0-7.36,4.67A249.19,249.19,0,0,1,219.58,280c0-137.67,112-249.67,249.67-249.67S718.93,142.33,718.93,280a9.79,9.79,0,1,0,19.58,0c0-148.46-120.78-269.25-269.25-269.25S200,131.54,200,280a268.55,268.55,0,0,0,87.4,198.36l-.25.23,8.72,7.35c.55.46,1.15.84,1.69,1.3,4.67,3.88,9.52,7.56,14.45,11.12,1.56,1.13,3.11,2.25,4.69,3.34q7.86,5.42,16.12,10.29l3.58,2.07c6,3.42,12.13,6.64,18.42,9.61l1.38.63a266.89,266.89,0,0,0,65.11,20.61l1.81.32c7.08,1.22,14.25,2.2,21.51,2.86.88.08,1.77.13,2.65.21,7.26.59,14.56,1,22,1a9.79,9.79,0,1,0,0-19.58Z"
          transform="translate(-200 -10.75)"/>
</svg>