<svg id="Capa_1" data-name="Capa 1" xmlns="http://www.w3.org/2000/svg" viewBox="0 0 559.99 560.01">
    <title>icon--teacher</title>
    <path fill="rgb(153, 153, 153)" d="M705.29,414.51,632.7,404.35l-32.4-63.28c-3.19-6.23-13.42-6.23-16.6,0l-32.4,63.28-72.58,10.16a9.33,9.33,0,0,0-5.09,16l52.31,49.16L513.59,549A9.33,9.33,0,0,0,527,559l65-32.93L657,559a9.21,9.21,0,0,0,4.22,1,9.33,9.33,0,0,0,9.19-11l-12.33-69.32,52.31-49.16a9.32,9.32,0,0,0-5.11-16Zm-63.68,55.06a9.33,9.33,0,0,0-2.8,8.43l9.93,55.88-52.53-26.62a9.33,9.33,0,0,0-8.44,0l-52.53,26.62L545.18,478a9.31,9.31,0,0,0-2.8-8.43l-41.8-39.26,58.1-8.14a9.32,9.32,0,0,0,7-5L592,365.81l26.3,51.37a9.32,9.32,0,0,0,7,5l58.1,8.14Z"
          transform="translate(-200.01)"/>
    <path fill="rgb(153, 153, 153)" d="M470.67,242.86a37.31,37.31,0,0,0-27,27.8h-66.3a9.33,9.33,0,1,0,0,18.67h67a37.23,37.23,0,1,0,45-46.47V148.2a9.33,9.33,0,1,0-18.67,0Zm28,36A18.67,18.67,0,1,1,480,260.2,18.69,18.69,0,0,1,498.67,278.87Z"
          transform="translate(-200.01)"/>
    <path fill="rgb(153, 153, 153)" d="M480,92.2a9.32,9.32,0,0,0,9.33-9.33V73.54a9.33,9.33,0,1,0-18.67,0v9.33A9.32,9.32,0,0,0,480,92.2Z"
          transform="translate(-200.01)"/>
    <path fill="rgb(153, 153, 153)" d="M685.33,288.2a9.33,9.33,0,0,0,0-18.67H676a9.33,9.33,0,0,0,0,18.67Z" transform="translate(-200.01)"/>
    <path fill="rgb(153, 153, 153)" d="M274.67,269.53a9.33,9.33,0,1,0,0,18.67H284a9.33,9.33,0,0,0,0-18.67Z" transform="translate(-200.01)"/>
    <path fill="rgb(153, 153, 153)" d="M625.19,146.87l6.6-6.6a9.33,9.33,0,1,0-13.2-13.2l-6.6,6.6a9.33,9.33,0,1,0,13.2,13.2Z"
          transform="translate(-200.01)"/>
    <path fill="rgb(153, 153, 153)" d="M334.81,410.86l-6.6,6.6a9.33,9.33,0,1,0,13.2,13.2l6.6-6.6a9.33,9.33,0,1,0-13.2-13.2Z"
          transform="translate(-200.01)"/>
    <path fill="rgb(153, 153, 153)" d="M348,133.67l-6.6-6.6a9.33,9.33,0,1,0-13.2,13.2l6.6,6.6a9.33,9.33,0,0,0,13.2-13.2Z"
          transform="translate(-200.01)"/>
    <path fill="rgb(153, 153, 153)" d="M480,0C325.62,0,200,125.61,200,280A279.4,279.4,0,0,0,412.46,551.79a9.27,9.27,0,0,0,2.25.27,9.34,9.34,0,0,0,2.24-18.4A260.74,260.74,0,0,1,218.68,280C218.68,135.9,335.91,18.67,480,18.67S741.33,135.9,741.33,280a260.24,260.24,0,0,1-17.57,94.21,9.33,9.33,0,0,0,17.41,6.73A278.67,278.67,0,0,0,760,280C760,125.61,634.39,0,480,0Z"
          transform="translate(-200.01)"/>
</svg>