<svg id="Capa_1" data-name="Capa 1" xmlns="http://www.w3.org/2000/svg" viewBox="0 0 560 543.31">
    <title>icon--student</title>
    <path fill="rgb(153, 153, 153)" d="M751.56,334,724,306.44a28.86,28.86,0,0,0-40.76,0L534.69,455l-20.48,75.11-5,5a9.64,9.64,0,0,0-.06,13.57l0,.19.18,0a9.62,9.62,0,0,0,13.58,0l5-5L603,523.33l148.6-148.61A28.85,28.85,0,0,0,751.56,334ZM557,460.07l98.9-98.9,41,41L598,501Zm-8.72,18.59,31.09,31.09L536.6,521.41ZM737.91,361.07,710.5,388.48l-41-41,27.41-27.41a9.53,9.53,0,0,1,13.46,0l27.52,27.52A9.51,9.51,0,0,1,737.91,361.07Z"
          transform="translate(-200 -8.35)"/>
    <path fill="rgb(153, 153, 153)" d="M497.08,311.13s-.62-.75-1.59-2l-.18-.23c-.51-.67-1.11-1.48-1.8-2.42l0,0c-1.44-2-3.24-4.6-5.25-7.72l-.14-.21c-.95-1.49-2-3.09-3-4.8l-.23-.39c-2.18-3.66-4.5-7.8-6.81-12.39v0c-1.23-2.45-2.45-5-3.65-7.74h0c-.16-.38-.34-.74-.5-1.12h0c-.53-1.21-1.06-2.47-1.6-3.78l-.58-1.45c-.5-1.26-1-2.54-1.55-4-1-2.63-1.91-5.37-2.8-8.2l-.53-1.72c-.06-.19-.13-.39-.18-.59-.91-3.05-1.78-6.17-2.51-9.38l-.88-3.82L460,237A19.28,19.28,0,0,1,451,220.77V182.15a19.06,19.06,0,0,1,6.47-14.24l3.19-2.88V101.48l-.26-.2c-.33-7,.09-28.34,15.67-46.11,16-18.25,43.3-27.5,81.14-27.5s65,9.18,81,27.31c18.8,21.25,15.69,48.44,15.67,48.67L653.8,165l3.19,2.88a19,19,0,0,1,6.47,14.24v38.62a19.2,19.2,0,0,1-13.73,18.34,9.65,9.65,0,0,0,5.69,18.45,38.42,38.42,0,0,0,27.35-36.79V182.15a38.5,38.5,0,0,0-9.66-25.35V105.44c.54-5.31,2.66-36.92-20.2-63-19.83-22.62-52-34.08-95.67-34.08s-75.83,11.47-95.67,34.08C447.73,58.24,443.06,76,441.65,88.83c-16.55-8.56-36.05-12.89-58.2-12.89-100.31,0-106.15,85.5-106.21,86.9V207c-6.26,6.82-9.66,14.69-9.66,22.5V262.9a34.45,34.45,0,0,0,12.66,26.7c8,30,27.56,52.72,35.18,60.68v26.48a21,21,0,0,1-11.31,18.49l-64.24,40.29A76.48,76.48,0,0,0,200,502.73V539.4H460.69a9.66,9.66,0,0,0,0-19.31H354.49V498.48A67.74,67.74,0,0,1,389.81,439l86.14-47a44.85,44.85,0,0,0,23.37-39.36v-38.8h0l-1.87-2.24ZM480,352.61a25.51,25.51,0,0,1-13.3,22.4l-25.55,13.93-6.27,3.42L380.57,422a87.05,87.05,0,0,0-45.39,76.47v21.61H219.31V502.72a57.47,57.47,0,0,1,30.33-50.53l64.23-40.29a40,40,0,0,0,20.87-35.16V342.09l-3.07-2.87c-.25-.23-25.91-24.47-33.48-57.5l-.88-3.82-3.3-2.12a15.34,15.34,0,0,1-7.1-12.88V229.55c0-3.48,2.37-7.61,6.48-11.34l3.18-2.87,0-51.95c.17-2.78,5.2-68.16,86.92-68.16,23.11,0,42.56,5.34,57.93,15.87v45.68a38.5,38.5,0,0,0-9.66,25.35v38.62a38.83,38.83,0,0,0,1,8.62c.26,1.12.78,2.14,1.14,3.22a38.14,38.14,0,0,0,1.7,4.83l0,0a38.68,38.68,0,0,0,10.61,13.3c0,.18.11.35.15.52.58,2.21,1.19,4.41,1.84,6.57l.78,2.52c.14.44.3.9.44,1.34.34,1,.67,2.09,1,3.11.58,1.69,1.19,3.43,1.89,5.34.3.8.63,1.51.94,2.29.79,2,1.58,4,2.41,5.9.2.46.38,1,.58,1.42l.54,1.22c.25.56.51,1.06.76,1.61.95,2.07,1.87,4.06,2.84,6,.15.31.3.65.45,1,.61,1.21,1.22,2.35,1.82,3.5,1,2,2.07,3.86,3.09,5.68.5.89,1,1.76,1.49,2.6,1.39,2.38,2.71,4.56,4,6.58.28.43.55.89.82,1.3,2.34,3.62,4.36,6.56,6,8.84l1.21,1.64c.21.28.5.69.69.94v31.95Z"
          transform="translate(-200 -8.35)"/>
</svg>