<?xml version="1.0" encoding="utf-8"?>
<!-- Generator: Adobe Illustrator 27.2.0, SVG Export Plug-In . SVG Version: 6.00 Build 0)  -->
<svg version="1.1" id="Layer_1" xmlns="http://www.w3.org/2000/svg" xmlns:xlink="http://www.w3.org/1999/xlink" x="0px" y="0px"
	 viewBox="0 0 30 30" style="enable-background:new 0 0 30 30;" xml:space="preserve">
<style type="text/css">
	.st0{fill:#999999;}
	.st1{fill:none;stroke:#000000;stroke-width:2;}
	.st2{enable-background:new    ;}
</style>
<g id="ELEMENTS">
	<g id="_x30_3-_x5F_-STYLEGUIDE---Icon-System" transform="translate(-559.000000, -257.000000)">
		<g id="STATUS-ICONS" transform="translate(559.000000, 257.000000)">
			<g id="STATUS-TYPE-_x2F_-iscritto">
				<g id="ISCRITTO-ICON">
					<path class="st0" d="M22.2,21.9l-0.4-0.1c-0.3-0.1-0.5-0.3-0.4-0.6c0-0.1,0-0.2,0.1-0.2l0.2-0.3c0.1-0.1,0.1-0.3,0-0.3
						l-0.5-0.5c-0.1-0.1-0.2-0.1-0.3,0L20.5,20c-0.2,0.2-0.6,0.1-0.7-0.1c0-0.1-0.1-0.1-0.1-0.2l-0.1-0.4c0-0.1-0.1-0.2-0.3-0.2
						h-0.7c-0.1,0-0.2,0.1-0.3,0.2l-0.1,0.5c-0.1,0.3-0.3,0.5-0.6,0.4c-0.1,0-0.1,0-0.2-0.1L17,19.8c-0.1-0.1-0.2-0.1-0.3,0
						l-0.5,0.5c-0.1,0.1-0.1,0.2,0,0.3l0.2,0.3c0.2,0.2,0.1,0.6-0.1,0.7c-0.1,0-0.1,0.1-0.2,0.1l-0.4,0.1c-0.1,0-0.2,0.1-0.2,0.3
						v0.7c0,0.1,0.1,0.2,0.2,0.3l0.4,0.1c0.3,0,0.5,0.3,0.4,0.6c0,0.1,0,0.2-0.1,0.2l-0.2,0.3c-0.1,0.1-0.1,0.2,0,0.3l0.5,0.5
						c0.1,0.1,0.2,0.1,0.3,0l0.3-0.2c0.2-0.2,0.6-0.1,0.7,0.1c0,0.1,0.1,0.1,0.1,0.2l0.1,0.4c0,0.1,0.1,0.2,0.3,0.2h0.7
						c0.1,0,0.2-0.1,0.3-0.2l0-0.3c0-0.3,0.3-0.5,0.6-0.4c0.1,0,0.2,0,0.2,0.1l0.2,0.2c0.1,0.1,0.3,0.1,0.3,0l0.5-0.5
						c0.1-0.1,0.1-0.2,0-0.3l-0.2-0.3c-0.2-0.2-0.1-0.6,0.1-0.7c0.1,0,0.1-0.1,0.2-0.1l0.4-0.1c0.1,0,0.2-0.1,0.2-0.3v-0.7
						C22.4,22.1,22.3,22,22.2,21.9z M21.9,22.7l-0.2,0c-0.6,0.1-1,0.6-0.9,1.2c0,0.2,0.1,0.3,0.2,0.4l0.1,0.1l-0.2,0.2l0,0
						c-0.5-0.3-1.1-0.2-1.5,0.2c-0.1,0.1-0.2,0.3-0.2,0.5l0,0.1h-0.3l0-0.2c-0.1-0.6-0.7-1-1.2-0.8c-0.2,0-0.3,0.1-0.4,0.2L17,24.7
						l-0.2-0.2l0.1-0.1c0.3-0.5,0.2-1.2-0.3-1.5c-0.1-0.1-0.3-0.1-0.4-0.2l-0.2,0v-0.3l0.2,0c0.6-0.1,1-0.7,0.8-1.2
						c0-0.2-0.1-0.3-0.2-0.4l-0.1-0.1l0.2-0.2l0.2,0.2c0.5,0.3,1.2,0.2,1.5-0.3c0.1-0.1,0.1-0.3,0.2-0.4l0.1-0.3h0.3l0,0.2
						c0.1,0.6,0.6,1,1.2,0.9c0.2,0,0.3-0.1,0.4-0.2l0.1-0.1l0.2,0.2l-0.1,0.1c-0.3,0.5-0.2,1.1,0.2,1.5c0.1,0.1,0.3,0.2,0.4,0.2
						l0.2,0L21.9,22.7L21.9,22.7z"/>
					<path class="st0" d="M18.9,21.2c-0.7,0-1.3,0.6-1.3,1.3c0,0.7,0.6,1.3,1.3,1.3c0.7,0,1.3-0.6,1.3-1.3v0
						C20.3,21.8,19.7,21.2,18.9,21.2z M18.9,23.3c-0.4,0-0.8-0.4-0.8-0.8s0.4-0.8,0.8-0.8s0.8,0.4,0.8,0.8S19.4,23.3,18.9,23.3
						C18.9,23.3,18.9,23.3,18.9,23.3L18.9,23.3z"/>
					<path class="st0" d="M15,0C6.7,0,0,6.7,0,15c0,4.2,1.8,8.2,4.9,11l0,0l0.5,0.4c0,0,0.1,0,0.1,0.1c0.3,0.2,0.5,0.4,0.8,0.6
						c0.1,0.1,0.2,0.1,0.3,0.2c0.3,0.2,0.6,0.4,0.9,0.6C7.6,28,7.6,28,7.7,28c0.3,0.2,0.7,0.4,1,0.5h0.1c1.2,0.5,2.4,0.9,3.6,1.1
						h0.1c0.4,0.1,0.8,0.1,1.2,0.2h0.1c0.4,0,0.8,0.1,1.2,0.1c0.3,0,0.5-0.2,0.5-0.5S15.3,29,15,29s-0.7,0-1,0c-0.1,0-0.1,0-0.2,0
						c-0.3,0-0.7-0.1-1-0.1l0,0c-0.7-0.1-1.4-0.3-2.1-0.5h-0.1c-0.3-0.1-0.7-0.2-1-0.4l0,0c-0.3-0.1-0.6-0.3-0.9-0.4
						c0,0-0.1,0-0.1-0.1C8.3,27.4,8,27.2,7.8,27c-0.1-0.1-0.2-0.1-0.2-0.2c-0.2-0.2-0.5-0.3-0.7-0.5c0,0,0,0-0.1-0.1h0.1l4.3-2.3
						c0.7-0.4,1.2-1.2,1.2-2v-2L12,19.5c0,0-1.2-1.4-1.6-3.4v-0.2l-0.2-0.1c-0.3-0.2-0.4-0.5-0.4-0.8v-1.9c0-0.3,0.1-0.5,0.3-0.7
						l0.2-0.2v-3V9.1c0,0-0.2-1.3,0.8-2.4c0.8-0.9,2.1-1.4,4-1.4s3.2,0.5,4,1.3C20,7.6,19.9,9,19.9,9v3.1l0.2,0.2
						c0.2,0.2,0.3,0.4,0.3,0.7v1.9c0,0.4-0.3,0.7-0.6,0.9c-0.3,0.1-0.5,0.4-0.4,0.7c0.1,0.3,0.4,0.5,0.7,0.4l0,0
						c0.8-0.3,1.4-1,1.4-1.9v-1.9c0-0.5-0.2-0.9-0.5-1.3V9.3c0-0.3,0.1-1.9-1-3.2c-1-1.1-2.6-1.7-4.8-1.7s-4,0.6-5,1.7
						C9,7.4,9.1,9,9.1,9.3v2.5c-0.3,0.4-0.5,0.8-0.5,1.3V15c0,0.6,0.3,1.2,0.7,1.5c0.4,1.7,1.3,3,1.7,3.5v1.6c0,0.4-0.2,0.9-0.6,1.1
						L6.1,25c-0.1,0.1-0.3,0.2-0.4,0.3C2.8,22.8,1.1,18.9,1.1,15C1.1,7.3,7.3,1.1,15,1.1S28.9,7.3,28.9,15c0,0.3,0.2,0.5,0.5,0.5
						s0.5-0.2,0.5-0.5C30,6.7,23.3,0,15,0z"/>
					<circle id="Oval" class="st1" cx="15" cy="15" r="14"/>
				</g>
			</g>
		</g>
	</g>
</g>
<path class="st2" d="M0,0"/>
<path class="st2" d="M0,0"/>
</svg>
