<svg id="Capa_1" data-name="Capa 1" xmlns="http://www.w3.org/2000/svg" viewBox="0 0 560 550.17">
    <title>icon--menthor</title>
    <path fill="rgb(153, 153, 153)" d="M757.37,539l-56.64-59.25a102.87,102.87,0,1,0-14,12.8l56.94,59.56A9.49,9.49,0,1,0,757.37,539ZM541.59,411a83.46,83.46,0,1,1,83.46,83.46A83.56,83.56,0,0,1,541.59,411Z"
          transform="translate(-200 -4.92)"/>
    <path fill="rgb(153, 153, 153)" d="M460.94,507.81c-6,0-12-.29-18-.74-1-.08-2.07-.14-3.09-.24-6-.53-12-1.24-17.93-2.21l-.8-.14a241.06,241.06,0,0,1-36.91-9.21l-1.12-.38c-6-2-11.87-4.27-17.67-6.77l-.12-.06c-5.48-2.36-10.86-5-16.18-7.74-.69-.36-1.39-.7-2.08-1.07-4.85-2.59-9.59-5.39-14.27-8.31q-2.08-1.31-4.13-2.65c-4.31-2.82-8.56-5.75-12.7-8.85-.43-.32-.84-.66-1.26-1l.91-.51,75-40.92a40.13,40.13,0,0,0,20.92-35.24V347.6L409.37,345c-.21-.24-20.72-25.19-28.48-59l-.86-3.76-3.24-2.1a15.72,15.72,0,0,1-7.3-13.21V233.28a15.5,15.5,0,0,1,5.29-11.6l3.13-2.83V166l-.09-1.24c0-.23-2.83-23,13.25-41.37,13.72-15.65,37.23-23.59,69.86-23.59s55.94,7.88,69.7,23.4c16.05,18.13,13.43,41.38,13.41,41.57L544,218.86l3.13,2.83a15.51,15.51,0,0,1,5.29,11.6v33.64a15.85,15.85,0,0,1-11.21,14.94,9.48,9.48,0,0,0,5.6,18.12,34.53,34.53,0,0,0,24.59-33.07V233.29a34.52,34.52,0,0,0-8.42-22.48V166.53c.49-4.93,2.24-32.72-17.87-55.64-17.49-20-45.79-30.06-84.14-30.06s-66.65,10.11-84.14,30.06c-20.11,22.92-18.36,50.73-17.87,55.64v44.28a34.57,34.57,0,0,0-8.42,22.48v33.64a34.52,34.52,0,0,0,12.71,26.77c7.69,30.11,23.5,52.9,29.35,60.62v27.46a21.17,21.17,0,0,1-11,18.58l-75,40.92a68.57,68.57,0,0,0-7.14,4.52A241.36,241.36,0,0,1,219,265.85c0-133.42,108.54-242,242-242s242,108.55,242,242a9.49,9.49,0,1,0,19,0C721.87,122,604.81,4.92,460.94,4.92S200,122,200,265.85a260.28,260.28,0,0,0,84.7,192.22l-.26.23,8.46,7.14c.55.46,1.15.84,1.69,1.3,4.5,3.73,9.16,7.27,13.9,10.69,1.54,1.11,3.07,2.23,4.64,3.3q7.6,5.24,15.58,9.94c1.16.68,2.32,1.35,3.49,2C338,496,344,499.12,350,502l1.35.61a258.59,258.59,0,0,0,63.11,20l1.75.31c6.87,1.19,13.82,2.13,20.85,2.77l2.57.2c7,.57,14.11.94,21.28.94a9.49,9.49,0,1,0,0-19Z"
          transform="translate(-200 -4.92)"/>
</svg>