<?xml version="1.0" encoding="utf-8"?>
<!-- Generator: Adobe Illustrator 27.2.0, SVG Export Plug-In . SVG Version: 6.00 Build 0)  -->
<svg version="1.1" id="Layer_1" xmlns="http://www.w3.org/2000/svg" xmlns:xlink="http://www.w3.org/1999/xlink" x="0px" y="0px"
	 viewBox="0 0 30 30" style="enable-background:new 0 0 30 30;" xml:space="preserve">
<style type="text/css">
	.st0{fill:none;stroke:#000000;stroke-width:2;}
	.st1{enable-background:new    ;}
	.st2{fill:#999999;}
</style>
<g id="ELEMENTS">
	<g id="_x30_3-_x5F_-STYLEGUIDE---Icon-System" transform="translate(-559.000000, -257.000000)">
		<g id="STATUS-ICONS" transform="translate(559.000000, 257.000000)">
			<g id="STATUS-TYPE-_x2F_-iscritto">
				<g id="ISCRITTO-ICON">
					<circle id="Oval" class="st0" cx="15" cy="15" r="14"/>
				</g>
			</g>
		</g>
	</g>
</g>
<path class="st1" d="M0,0"/>
<path class="st1" d="M0,0"/>
<path class="st2" d="M15,7.1c-3.4,0-6.1,2.7-6.1,6.1V22c0,0.2,0,0.3,0,0.5c0,0.2,0.2,0.4,0.5,0.4h0c0.2,0,0.3-0.1,0.4-0.2l1.5-2.1
	l1.5,2.1c0,0,0,0,0,0c0,0,0,0,0,0c0,0,0,0,0,0l0,0c0,0,0,0,0,0c0,0,0,0,0,0c0,0,0.1,0,0.1,0c0,0,0,0,0,0c0,0,0.1,0,0.1,0h0
	c0,0,0,0,0,0c0,0,0.1,0,0.1,0c0,0,0,0,0,0c0,0,0.1,0,0.1-0.1c0,0,0,0,0,0c0,0,0,0,0,0c0,0,0,0,0,0c0,0,0,0,0,0c0,0,0,0,0,0l1.5-2.1
	l1.5,2.1c0,0,0,0,0,0c0,0,0,0,0,0c0,0,0,0,0,0c0,0,0,0,0,0c0,0,0,0,0,0c0,0,0,0,0,0c0,0,0.1,0,0.1,0c0,0,0,0,0,0c0,0,0.1,0,0.1,0h0
	c0,0,0,0,0,0c0,0,0.1,0,0.1,0c0,0,0,0,0,0c0,0,0.1,0,0.1-0.1c0,0,0,0,0,0c0,0,0,0,0,0c0,0,0,0,0,0c0,0,0,0,0,0c0,0,0,0,0,0l1.5-2.1
	l1.5,2c0.2,0.2,0.4,0.3,0.7,0.1c0.1-0.1,0.2-0.2,0.2-0.3c0-0.1,0-0.3,0-0.4v-8.8C21.1,9.8,18.4,7.1,15,7.1z M20.2,21l-1-1.4
	c-0.1-0.1-0.2-0.2-0.4-0.2l0,0c-0.2,0-0.3,0.1-0.4,0.2l-1.5,2.1l-1.5-2.1c-0.2-0.2-0.4-0.3-0.7-0.1c0,0-0.1,0.1-0.1,0.1l-1.5,2.1
	l-1.5-2.1c-0.2-0.2-0.4-0.3-0.7-0.1c0,0-0.1,0.1-0.1,0.1l-1.1,1.5v-7.9C9.8,10.3,12.1,8,15,8s5.2,2.3,5.2,5.2L20.2,21L20.2,21z"/>
<path class="st2" d="M12.4,11.7c-0.8,0-1.4,0.6-1.4,1.4c0,0.8,0.6,1.4,1.4,1.4c0.8,0,1.4-0.6,1.4-1.4l0,0
	C13.8,12.3,13.2,11.7,12.4,11.7z M12.4,13.5c-0.2,0-0.4-0.2-0.4-0.4s0.2-0.4,0.4-0.4s0.4,0.2,0.4,0.4C12.8,13.3,12.6,13.5,12.4,13.5
	z"/>
<path class="st2" d="M17.7,11.7c-0.8,0-1.4,0.6-1.4,1.4c0,0.8,0.6,1.4,1.4,1.4c0.8,0,1.4-0.6,1.4-1.4C19,12.3,18.4,11.7,17.7,11.7z
	 M17.7,13.5c-0.2,0-0.4-0.2-0.4-0.4s0.2-0.4,0.4-0.4c0.2,0,0.4,0.2,0.4,0.4C18.1,13.3,17.9,13.5,17.7,13.5z"/>
</svg>
