<?xml version="1.0" encoding="utf-8"?>
<!-- Generator: Adobe Illustrator 27.2.0, SVG Export Plug-In . SVG Version: 6.00 Build 0)  -->
<svg version="1.1" id="Layer_1" xmlns="http://www.w3.org/2000/svg" xmlns:xlink="http://www.w3.org/1999/xlink" x="0px" y="0px"
	 viewBox="0 0 30 30" style="enable-background:new 0 0 30 30;" xml:space="preserve">
<style type="text/css">
	.st0{fill:#999999;}
	.st1{fill:none;stroke:#000000;stroke-width:2;}
	.st2{enable-background:new    ;}
</style>
<g id="ELEMENTS">
	<g id="_x30_3-_x5F_-STYLEGUIDE---Icon-System" transform="translate(-559.000000, -257.000000)">
		<g id="STATUS-ICONS" transform="translate(559.000000, 257.000000)">
			<g id="STATUS-TYPE-_x2F_-iscritto">
				<g id="ISCRITTO-ICON">
					<path class="st0" d="M23.9,20.9c-1.3-2-3.1-3.2-5-3.3c-0.1,0-0.2,0-0.3,0c-0.2,0-0.4,0-0.5,0.1c-1.7,0.2-3.4,1.3-4.6,3.2
						l-0.2,0.3l0.1,0.2c1.4,2.1,3.2,3.3,5.2,3.3s3.9-1.2,5.2-3.3l0.2-0.3L23.9,20.9z M20.4,20.3c0,1-0.8,1.9-1.9,1.9
						c-1,0-1.9-0.8-1.9-1.9c0-0.9,0.6-1.6,1.5-1.8c0.2,0,0.3,0,0.5,0h0C19.7,18.5,20.4,19.3,20.4,20.3L20.4,20.3z M18.6,23.9
						c-1.7,0-3.2-1-4.5-2.7c0.6-0.9,1.3-1.5,2-2c-0.6,1.3,0,2.9,1.3,3.5c1.3,0.6,2.9,0,3.5-1.3c0.3-0.8,0.3-1.6-0.1-2.4
						c0.8,0.5,1.6,1.2,2.3,2.1C21.9,22.9,20.3,23.9,18.6,23.9L18.6,23.9z"/>
					<path class="st0" d="M15,28.4c-0.3,0-0.7,0-1,0c-0.1,0-0.1,0-0.2,0c-0.3,0-0.7-0.1-1-0.1l0,0c-0.7-0.1-1.4-0.3-2.1-0.5l-0.1,0
						c-0.7-0.2-1.3-0.5-1.9-0.8c0,0-0.1,0-0.1-0.1c-0.3-0.1-0.5-0.3-0.8-0.5c-0.1,0-0.2-0.1-0.2-0.1c-0.2-0.2-0.5-0.3-0.7-0.5
						c0,0,0,0-0.1-0.1l0.1,0l4.2-2.3c0.7-0.4,1.2-1.1,1.2-2v-1.9l-0.1-0.1c0,0-1.2-1.4-1.6-3.3l0-0.2l-0.2-0.1
						C10,15.6,9.9,15.3,9.9,15v-1.9c0-0.2,0.1-0.5,0.3-0.7l0.2-0.2v-3l0-0.1c0,0-0.2-1.3,0.7-2.3c0.8-0.9,2.1-1.3,3.9-1.3
						s3.1,0.4,3.9,1.3c0.9,1,0.7,2.3,0.7,2.3l0,3l0.2,0.2c0.2,0.2,0.3,0.4,0.3,0.7V15c0,0.4-0.3,0.7-0.6,0.8
						c-0.3,0.1-0.4,0.4-0.4,0.7c0.1,0.3,0.4,0.4,0.7,0.4c0.8-0.2,1.4-1,1.4-1.8v-1.9c0-0.5-0.2-0.9-0.5-1.3V9.4c0-0.3,0.1-1.8-1-3.1
						c-1-1.1-2.6-1.7-4.7-1.7s-3.7,0.6-4.7,1.7c-1.1,1.3-1,2.8-1,3.1v2.5c-0.3,0.3-0.5,0.8-0.5,1.3V15c0,0.6,0.3,1.1,0.7,1.5
						c0.4,1.7,1.3,3,1.6,3.4v1.5c0,0.4-0.2,0.8-0.6,1l-4.2,2.3C6.2,24.8,6.1,24.9,6,25c-2.9-2.6-4.5-6.2-4.5-10.1
						C1.5,7.5,7.5,1.4,15,1.4s13.5,6.1,13.5,13.5c0,0.3,0.2,0.5,0.5,0.5c0.3,0,0.5-0.2,0.5-0.5c0-8-6.5-14.6-14.6-14.6
						S0.4,6.9,0.4,14.9c0,4.1,1.7,8,4.7,10.7l0,0l0.5,0.4c0,0,0.1,0,0.1,0.1c0.3,0.2,0.5,0.4,0.8,0.6c0.1,0.1,0.2,0.1,0.3,0.2
						c0.3,0.2,0.6,0.4,0.9,0.6l0.2,0.1c0.3,0.2,0.7,0.4,1,0.5l0.1,0c1.1,0.5,2.3,0.9,3.5,1.1l0.1,0c0.4,0.1,0.8,0.1,1.2,0.2
						c0,0,0.1,0,0.1,0c0.4,0,0.8,0.1,1.2,0.1c0.3,0,0.5-0.2,0.5-0.5C15.5,28.7,15.3,28.4,15,28.4L15,28.4z"/>
					<circle id="Oval" class="st1" cx="15" cy="15" r="14"/>
				</g>
			</g>
		</g>
	</g>
</g>
<path class="st2" d="M0,0"/>
<path class="st2" d="M0,0"/>
</svg>
