<?xml version="1.0" encoding="utf-8"?>
<!-- Generator: Adobe Illustrator 27.2.0, SVG Export Plug-In . SVG Version: 6.00 Build 0)  -->
<svg version="1.1" id="Layer_1" xmlns="http://www.w3.org/2000/svg" xmlns:xlink="http://www.w3.org/1999/xlink" x="0px" y="0px"
	 viewBox="0 0 30 30" style="enable-background:new 0 0 30 30;" xml:space="preserve">
<style type="text/css">
	.st0{fill:#999999;}
	.st1{fill:none;stroke:#000000;stroke-width:2;}
</style>
<path class="st0" d="M15,0C6.7,0,0,6.7,0,15c0,4.2,1.8,8.2,4.9,11l0,0l0.5,0.4c0,0,0.1,0,0.1,0.1c0.3,0.2,0.5,0.4,0.8,0.6
	c0.1,0.1,0.2,0.1,0.3,0.2c0.3,0.2,0.6,0.4,0.9,0.6c0.1,0,0.1,0.1,0.2,0.1c0.3,0.2,0.7,0.4,1,0.5h0.1c1.2,0.5,2.4,0.9,3.6,1.1h0.1
	c0.4,0.1,0.8,0.1,1.2,0.2h0.1c0.4,0,0.8,0.1,1.2,0.1c0.3,0,0.5-0.2,0.5-0.5s-0.2-0.5-0.5-0.5s-0.7,0-1,0c-0.1,0-0.1,0-0.2,0
	c-0.3,0-0.7-0.1-1-0.1l0,0c-0.7-0.1-1.4-0.3-2.1-0.5h-0.1c-0.3-0.1-0.7-0.2-1-0.4l0,0c-0.3-0.1-0.6-0.3-0.9-0.4c0,0-0.1,0-0.1-0.1
	c-0.3-0.1-0.6-0.3-0.8-0.5c-0.1-0.1-0.2-0.1-0.2-0.2c-0.2-0.2-0.5-0.3-0.7-0.5c0,0,0,0-0.1-0.1h0.1l4.3-2.3c0.7-0.4,1.2-1.2,1.2-2
	v-2L12,19.5c0,0-1.2-1.4-1.6-3.4v-0.2l-0.2-0.1c-0.3-0.2-0.4-0.5-0.4-0.8v-1.9c0-0.3,0.1-0.5,0.3-0.7l0.2-0.2v-3V9.1
	c0,0-0.2-1.3,0.8-2.4c0.8-0.9,2.1-1.4,4-1.4s3.2,0.5,4,1.3C20,7.6,19.9,9,19.9,9v3.1l0.2,0.2c0.2,0.2,0.3,0.4,0.3,0.7v1.9
	c0,0.4-0.3,0.7-0.6,0.9c-0.3,0.1-0.5,0.4-0.4,0.7s0.4,0.5,0.7,0.4l0,0c0.8-0.3,1.4-1,1.4-1.9v-1.9c0-0.5-0.2-0.9-0.5-1.3V9.3
	c0-0.3,0.1-1.9-1-3.2c-1-1.1-2.6-1.7-4.8-1.7s-4,0.6-5,1.7C9,7.4,9.1,9,9.1,9.3v2.5c-0.3,0.4-0.5,0.8-0.5,1.3V15
	c0,0.6,0.3,1.2,0.7,1.5c0.4,1.7,1.3,3,1.7,3.5v1.6c0,0.4-0.2,0.9-0.6,1.1L6.1,25c-0.1,0.1-0.3,0.2-0.4,0.3C2.8,22.7,1.1,18.9,1.1,15
	C1.1,7.3,7.3,1.1,15,1.1S28.9,7.3,28.9,15c0,0.3,0.2,0.5,0.5,0.5s0.5-0.2,0.5-0.5C30,6.7,23.3,0,15,0z"/>
<g id="ELEMENTS">
	<g id="_x30_3-_x5F_-STYLEGUIDE---Icon-System" transform="translate(-559.000000, -257.000000)">
		<g id="STATUS-ICONS" transform="translate(559.000000, 257.000000)">
			<g id="STATUS-TYPE-_x2F_-iscritto">
				<g id="ISCRITTO-ICON">
					<circle id="Oval" class="st1" cx="15" cy="15" r="14"/>
				</g>
			</g>
		</g>
	</g>
</g>
<path d="M0,0"/>
<path d="M0,0"/>
<path class="st0" d="M176.5,273.6l15.5-7.7l-42.2-15.5l15.5,42.2l7.7-15.5l16.3,16.3c0.9,0.9,2.4,0.9,3.4,0c0.9-0.9,0.9-2.4,0-3.4
	L176.5,273.6z M157.9,258.4l22.1,8.1l-9.3,4.6l-4.6,9.3L157.9,258.4z"/>
<path class="st0" d="M20.1,22.4l1.8-0.9L17,19.7l1.8,4.9l0.9-1.8l1.9,1.9c0.1,0.1,0.3,0.1,0.4,0c0.1-0.1,0.1-0.3,0-0.4L20.1,22.4z
	 M17.9,20.6l2.6,0.9l-1.1,0.5l-0.5,1.1L17.9,20.6z"/>
</svg>
