<?xml version="1.0" encoding="UTF-8"?>
<svg width="24px" height="21px" viewBox="0 0 24 21" version="1.1" xmlns="http://www.w3.org/2000/svg" xmlns:xlink="http://www.w3.org/1999/xlink">
    <!-- Generator: Sketch 52.6 (67491) - http://www.bohemiancoding.com/sketch -->
    <title>icons/elearning</title>
    <desc>Created with Sketch.</desc>
    <g id="Symbols" stroke="none" stroke-width="1" fill="none" fill-rule="evenodd">
        <g id="mobile/components/course-item" transform="translate(-321.000000, 0.000000)" fill="#A478EA">
            <g id="components/course-item">
                <g id="icons/elearning" transform="translate(321.000000, 0.000000)">
                    <g id="desktop14" transform="translate(0.000000, -0.000000)">
                        <path d="M23.2988354,0.614278481 C22.911038,0.226481013 22.4451646,0.0325063291 21.9004557,0.0325063291 L2.09939241,0.0325063291 C1.55483544,0.0325063291 1.08881013,0.226481013 0.700860759,0.614278481 C0.313063291,1.00207595 0.119240506,1.46810127 0.119240506,2.01265823 L0.119240506,15.4774177 C0.119240506,16.0221266 0.313063291,16.4881519 0.700860759,16.8759494 C1.08881013,17.2637468 1.55483544,17.4575696 2.09939241,17.4575696 L8.8318481,17.4575696 C8.8318481,17.7709367 8.76577215,18.092962 8.63377215,18.4227342 C8.50177215,18.7528101 8.36977215,19.0415696 8.23777215,19.2890127 C8.10592405,19.5366076 8.0398481,19.7179747 8.0398481,19.8334177 C8.0398481,20.0478987 8.11822785,20.2338228 8.27498734,20.3902785 C8.43174684,20.5471899 8.61736709,20.6257215 8.8318481,20.6257215 L15.1681519,20.6257215 C15.3826329,20.6257215 15.5684051,20.5471899 15.7250127,20.3902785 C15.8819241,20.2338228 15.9603038,20.0478987 15.9603038,19.8334177 C15.9603038,19.7263291 15.8940759,19.5467848 15.7620759,19.2952405 C15.6300759,19.0436962 15.4980759,18.7505316 15.3662278,18.4166582 C15.2342278,18.082481 15.1681519,17.7628861 15.1681519,17.4575696 L21.9006076,17.4575696 C22.4450127,17.4575696 22.911038,17.2637468 23.2988354,16.8759494 C23.6866329,16.4881519 23.8806076,16.0221266 23.8806076,15.4774177 L23.8806076,2.01265823 C23.8807595,1.46810127 23.6867848,1.00207595 23.2988354,0.614278481 L23.2988354,0.614278481 Z M22.2964557,12.3092658 C22.2964557,12.4165063 22.2572658,12.5093165 22.1788861,12.5876962 C22.1005063,12.6659241 22.0076962,12.7051139 21.9004557,12.7051139 L2.09939241,12.7051139 C1.9921519,12.7051139 1.89934177,12.6659241 1.82096203,12.5876962 C1.74258228,12.5090127 1.70339241,12.4165063 1.70339241,12.3092658 L1.70339241,2.01265823 C1.70339241,1.90541772 1.74243038,1.81260759 1.82096203,1.73422785 C1.89934177,1.656 1.9921519,1.61665823 2.09939241,1.61665823 L21.9007595,1.61665823 C22.0078481,1.61665823 22.1008101,1.6558481 22.179038,1.73422785 C22.2574177,1.81260759 22.2964557,1.90541772 22.2964557,2.01265823 L22.2964557,12.3092658 L22.2964557,12.3092658 Z" id="Shape"></path>
                    </g>
                </g>
            </g>
        </g>
    </g>
</svg>