<?xml version="1.0" encoding="UTF-8"?>
<svg width="24px" height="22px" viewBox="0 0 24 22" version="1.1" xmlns="http://www.w3.org/2000/svg" xmlns:xlink="http://www.w3.org/1999/xlink">
    <!-- Generator: Sketch 62 (91390) - https://sketch.com -->
    <title>Regular/edit</title>
    <desc>Created with Sketch.</desc>
    <defs>
        <path d="M16.7625,14.725 L18.0958333,13.3916667 C18.3041667,13.1833333 18.6666667,13.3291667 18.6666667,13.6291667 L18.6666667,19.6875 C18.6666667,20.7916667 17.7708333,21.6875 16.6666667,21.6875 L2,21.6875 C0.895833333,21.6875 0,20.7916667 0,19.6875 L0,5.02083333 C0,3.91666667 0.895833333,3.02083333 2,3.02083333 L13.3958333,3.02083333 C13.6916667,3.02083333 13.8416667,3.37916667 13.6333333,3.59166667 L12.3,4.925 C12.2375,4.9875 12.1541667,5.02083333 12.0625,5.02083333 L2,5.02083333 L2,19.6875 L16.6666667,19.6875 L16.6666667,14.9583333 C16.6666667,14.8708333 16.7,14.7875 16.7625,14.725 Z M23.2875,6.31666667 L12.3458333,17.2583333 L8.57916667,17.675 C7.4875,17.7958333 6.55833333,16.875 6.67916667,15.775 L7.09583333,12.0083333 L18.0375,1.06666667 C18.9916667,0.1125 20.5333333,0.1125 21.4833333,1.06666667 L23.2833333,2.86666667 C24.2375,3.82083333 24.2375,5.36666667 23.2875,6.31666667 L23.2875,6.31666667 Z M19.1708333,7.60416667 L16.75,5.18333333 L9.00833333,12.9291667 L8.70416667,15.65 L11.425,15.3458333 L19.1708333,7.60416667 Z M21.8708333,4.28333333 L20.0708333,2.48333333 C19.9,2.3125 19.6208333,2.3125 19.4541667,2.48333333 L18.1666667,3.77083333 L20.5875,6.19166667 L21.875,4.90416667 C22.0416667,4.72916667 22.0416667,4.45416667 21.8708333,4.28333333 L21.8708333,4.28333333 Z" id="path-1"></path>
    </defs>
    <g id="000-Course-Info" stroke="none" stroke-width="1" fill="none" fill-rule="evenodd">
        <g id="course-info-teacher-desktop-1440" transform="translate(-563.000000, -978.000000)">
            <g id="Group-3" transform="translate(105.000000, 977.000000)">
                <g id="Group-4">
                    <g id="Regular/edit" transform="translate(458.000000, 1.000000)">
                        <mask id="mask-2" fill="white">
                            <use xlink:href="#path-1"></use>
                        </mask>
                        <use id="Mask" fill="#FA6C06" xlink:href="#path-1"></use>
                    </g>
                </g>
            </g>
        </g>
    </g>
</svg>