<?xml version="1.0" encoding="UTF-8"?>
<svg width="20px" height="22px" viewBox="0 0 20 22" version="1.1" xmlns="http://www.w3.org/2000/svg" xmlns:xlink="http://www.w3.org/1999/xlink">
    <!-- Generator: Sketch 62 (91390) - https://sketch.com -->
    <title>Regular/trash-alt</title>
    <desc>Created with Sketch.</desc>
    <defs>
        <path d="M8.70833333,8.078125 L8.70833333,17.359375 C8.70833333,17.6441289 8.47746224,17.875 8.19270833,17.875 L7.16145833,17.875 C6.87670443,17.875 6.64583333,17.6441289 6.64583333,17.359375 L6.64583333,8.078125 C6.64583333,7.79337109 6.87670443,7.5625 7.16145833,7.5625 L8.19270833,7.5625 C8.47746224,7.5625 8.70833333,7.79337109 8.70833333,8.078125 Z M13.0052083,7.5625 L11.9739583,7.5625 C11.6892044,7.5625 11.4583333,7.79337109 11.4583333,8.078125 L11.4583333,17.359375 C11.4583333,17.6441289 11.6892044,17.875 11.9739583,17.875 L13.0052083,17.875 C13.2899622,17.875 13.5208333,17.6441289 13.5208333,17.359375 L13.5208333,8.078125 C13.5208333,7.79337109 13.2899622,7.5625 13.0052083,7.5625 Z M18.6770833,3.4375 C19.2466341,3.4375 19.7083333,3.89919922 19.7083333,4.46875 L19.7083333,4.984375 C19.7083333,5.26912891 19.4774622,5.5 19.1927083,5.5 L18.3333333,5.5 L18.3333333,19.9375 C18.3333333,21.0766016 17.4099349,22 16.2708333,22 L3.89583333,22 C2.75673177,22 1.83333333,21.0766016 1.83333333,19.9375 L1.83333333,5.5 L0.973958333,5.5 C0.689204427,5.5 0.458333333,5.26912891 0.458333333,4.984375 L0.458333333,4.46875 C0.458333333,3.89919922 0.920032552,3.4375 1.48958333,3.4375 L4.68693099,3.4375 L6.14864193,1.00134375 C6.52138846,0.38010649 7.19275261,0 7.91723568,0 L12.249474,0 C12.973957,0 13.6453212,0.38010649 14.0180677,1.00134375 L15.4797357,3.4375 L18.6770833,3.4375 Z M7.09223568,3.4375 L13.074474,3.4375 L12.3245833,2.18766797 C12.27799,2.11001331 12.1940695,2.0625 12.1035091,2.0625 L8.06324349,2.0625 C7.97268311,2.0625 7.88876259,2.11001331 7.84216927,2.18766797 L7.09223568,3.4375 Z M16.2708333,5.5 L3.89583333,5.5 L3.89583333,19.6796875 C3.89583333,19.8220734 4.01125992,19.9375 4.15364583,19.9375 L16.0130208,19.9375 C16.1554067,19.9375 16.2708333,19.8220734 16.2708333,19.6796875 L16.2708333,5.5 Z" id="path-1"></path>
    </defs>
    <g id="000-Course-Info" stroke="none" stroke-width="1" fill="none" fill-rule="evenodd">
        <g id="course-info-teacher-desktop-1440" transform="translate(-674.000000, -978.000000)">
            <g id="Group-3" transform="translate(105.000000, 977.000000)">
                <g id="Group-4">
                    <g id="Regular/trash-alt" transform="translate(569.000000, 1.000000)">
                        <mask id="mask-2" fill="white">
                            <use xlink:href="#path-1"></use>
                        </mask>
                        <use id="Mask" fill="#FA6C06" xlink:href="#path-1"></use>
                    </g>
                </g>
            </g>
        </g>
    </g>
</svg>