<?xml version="1.0" encoding="UTF-8"?>
<svg width="72px" height="92px" viewBox="0 0 72 92" version="1.1" xmlns="http://www.w3.org/2000/svg" xmlns:xlink="http://www.w3.org/1999/xlink">
    <title>Untitled</title>
    <g id="Page-1" stroke="none" stroke-width="1" fill="none" fill-rule="evenodd">
        <g id="icon-audio" fill="#000000" fill-rule="nonzero">
            <g id="Group">
                <path d="M71.8,21.5 C71.8,21.4 71.8,21.4 71.7,21.3 C71.6,21.1 71.5,20.9 71.4,20.8 L52.1,1.5 C52,1.4 52,1.4 51.9,1.3 C51.8,1.2 51.7,1.2 51.6,1.2 C51.5,1.2 51.5,1.1 51.4,1.1 C51.2,1 51.1,1 50.9,1 L1.7,1 C0.8,1 0.1,1.7 0.1,2.6 L0.1,89.4 C0.1,90.3 0.8,91 1.7,91 L70.3,91 C71.2,91 71.9,90.3 71.9,89.4 L71.9,21.9 C71.9,21.8 71.9,21.7 71.8,21.5 Z M52.5,6.4 L66.4,20.3 L52.5,20.3 L52.5,6.4 Z M68.7,87.8 L3.3,87.8 L3.3,4.2 L49.3,4.2 L49.3,22 C49.3,22.9 50,23.6 50.9,23.6 L68.7,23.6 L68.7,87.8 L68.7,87.8 Z" id="Shape"></path>
                <path d="M51.8,1.3 C51.9,1.4 52,1.4 52,1.5 L52,1.5 C52,1.4 51.9,1.3 51.8,1.3 Z" id="Path"></path>
            </g>
            <g id="Group" transform="translate(25.000000, 31.000000)">
                <path d="M11,0.8 C7.9,0.8 5.4,3.3 5.4,6.4 L5.4,20.4 C5.4,23.5 7.9,26 11,26 C14.1,26 16.6,23.5 16.6,20.4 L16.6,6.4 C16.6,3.3 14.1,0.8 11,0.8 Z M11,22.8 C9.7,22.8 8.6,21.7 8.6,20.4 L8.6,6.4 C8.6,5.1 9.7,4 11,4 C12.3,4 13.4,5.1 13.4,6.4 L13.4,20.4 C13.4,21.7 12.3,22.8 11,22.8 Z" id="Shape"></path>
                <path d="M21.4,17.6 L21.4,20.5 C21.4,25.7 17.6,30.1 12.6,30.8 L12.6,33.6 L16.5,33.6 C17.4,33.6 18.1,34.3 18.1,35.2 C18.1,36.1 17.4,36.8 16.5,36.8 L5.5,36.8 C4.6,36.8 3.9,36.1 3.9,35.2 C3.9,34.3 4.6,33.6 5.5,33.6 L9.4,33.6 L9.4,30.8 C4.4,30 0.6,25.7 0.6,20.5 L0.6,17.6 C0.6,16.7 1.3,16 2.2,16 C3.1,16 3.8,16.7 3.8,17.6 L3.8,20.5 C3.8,24.5 7.1,27.7 11.1,27.7 C15.1,27.7 18.4,24.4 18.4,20.5 L18.4,17.6 C18.4,16.7 19.1,16 20,16 C20.7,16 21.4,16.7 21.4,17.6 Z" id="Path"></path>
            </g>
        </g>
    </g>
</svg>