<svg id="Livello_1" data-name="Livello 1" xmlns="http://www.w3.org/2000/svg" viewBox="0 0 44.12 46.89">
  <title>icon-item</title>
  <path d="M42.75,3.86c-5.28-5.28-15.15-4-22,2.87L1.88,25.59l.57.57L21.32,7.31C27.86.76,37.22-.52,42.18,4.44c2.38,2.38,3.4,5.85,2.87,9.78A19.62,19.62,0,0,1,39.31,25.3l-2.05,2.05h0L29,35.63l-4,4L22.5,42.11a15.27,15.27,0,0,1-8.62,4.47,8.78,8.78,0,0,1-7.58-2.22,8.78,8.78,0,0,1-2.22-7.58,15.27,15.27,0,0,1,4.47-8.62l8-8h0l5-5a11.57,11.57,0,0,1,6.53-3.39,6.62,6.62,0,0,1,5.71,1.67,6.61,6.61,0,0,1,1.67,5.71,11.57,11.57,0,0,1-3.39,6.53L20.81,36.94l.57.57L32.66,26.24a12.39,12.39,0,0,0,3.62-7,7.4,7.4,0,0,0-1.9-6.39,7.4,7.4,0,0,0-6.4-1.9,12.38,12.38,0,0,0-7,3.62L9.71,25.84h0L8,27.58a16.09,16.09,0,0,0-4.7,9.09,9.57,9.57,0,0,0,2.45,8.27,9.19,9.19,0,0,0,6.64,2.57,15.58,15.58,0,0,0,10.71-4.81l6.48-6.48L39.88,25.87a20.44,20.44,0,0,0,6-11.54C46.42,10.14,45.32,6.42,42.75,3.86Z" transform="translate(-1.88 -0.61)"/>
</svg>
