<?xml version="1.0" encoding="utf-8"?>
<!-- Generator: Adobe Illustrator 27.2.0, SVG Export Plug-In . SVG Version: 6.00 Build 0)  -->
<svg version="1.1" id="Layer_1" xmlns="http://www.w3.org/2000/svg" xmlns:xlink="http://www.w3.org/1999/xlink" x="0px" y="0px"
	 viewBox="0 0 30 30" style="enable-background:new 0 0 30 30;" xml:space="preserve">
<style type="text/css">
	.st0{fill:none;stroke:#000000;stroke-width:2;}
	.st1{fill:none;}
</style>
<g id="ELEMENTS">
	<g id="_x30_3-_x5F_-STYLEGUIDE---Icon-System" transform="translate(-559.000000, -257.000000)">
		<g id="STATUS-ICONS" transform="translate(559.000000, 257.000000)">
			<g id="STATUS-TYPE-_x2F_-iscritto">
				<g id="ISCRITTO-ICON">
					<circle id="Oval" class="st0" cx="15" cy="15" r="14"/>
					<path d="M15.4,6.6l2.1,4.8l5.2,0.5c0.2,0,0.4,0.2,0.4,0.5c0,0.1-0.1,0.2-0.1,0.3l0,0l-4,3.4l1.2,5.1c0.1,0.2-0.1,0.5-0.3,0.5
						c-0.1,0-0.2,0-0.3-0.1L15,18.9l-4.5,2.7c-0.2,0.1-0.5,0.1-0.6-0.1c-0.1-0.1-0.1-0.2,0-0.3l0,0l1.2-5.1l-3.9-3.4
						c-0.2-0.2-0.2-0.4,0-0.6c0.1-0.1,0.2-0.1,0.3-0.1l5.2-0.5l2.1-4.8c0.1-0.2,0.3-0.3,0.5-0.2C15.3,6.4,15.3,6.5,15.4,6.6z"/>
				</g>
			</g>
		</g>
	</g>
</g>
<path class="st1" d="z"/>
<path class="st1" d="z"/>
</svg>
