<?xml version="1.0" encoding="UTF-8"?>
<svg width="30px" height="30px" viewBox="0 0 30 30" version="1.1" xmlns="http://www.w3.org/2000/svg" xmlns:xlink="http://www.w3.org/1999/xlink">
    <defs>
        <circle id="path-1" cx="15" cy="15" r="15"></circle>
    </defs>
    <g id="ELEMENTS" stroke="none" stroke-width="1" fill="none" fill-rule="evenodd">
        <g id="03-_-STYLEGUIDE---Icon-System" transform="translate(-851.000000, -257.000000)">
            <g id="STATUS-TYPE-/-completato" transform="translate(851.000000, 257.000000)">
                <g id="COMPLETATO">
                    <mask id="mask-2" fill="white">
                        <use xlink:href="#path-1"></use>
                    </mask>
                    <use id="Mask" fill="#FF6C00" xlink:href="#path-1"></use>
                    <path d="M22.641098,13.790625 C22.9494902,13.49125 23.0583529,13.051875 22.9253333,12.6434375 C22.792,12.235 22.4447059,11.9434375 22.0180392,11.8815625 L18.2244706,11.3325 C18.062902,11.3090625 17.9232941,11.208125 17.8511373,11.0621875 L16.1551373,7.6384375 C15.9647059,7.25375 15.5781961,7.0146875 15.147451,7.0146875 C14.7170196,7.0146875 14.3305098,7.25375 14.1400784,7.6384375 L12.4437647,11.0625 C12.3716078,11.2084375 12.2316863,11.309375 12.0701176,11.3328125 L8.27654902,11.881875 C7.85019608,11.9434375 7.50258824,12.2353125 7.3692549,12.64375 C7.23623529,13.0521875 7.34509804,13.4915625 7.6534902,13.7909375 L10.3982745,16.4559375 C10.5152941,16.5696875 10.5689412,16.7334375 10.5413333,16.8934375 L9.89380392,20.6565625 C9.83639216,20.9878125 9.92360784,21.31 10.1388235,21.5640625 C10.4732549,21.96 11.057098,22.080625 11.5239216,21.83625 L14.916549,20.059375 C15.0583529,19.9853125 15.2368627,19.9859375 15.3783529,20.059375 L18.7712941,21.83625 C18.9363137,21.9228125 19.1123137,21.9665625 19.2939608,21.9665625 C19.6255686,21.9665625 19.9399216,21.8196875 20.1560784,21.5640625 C20.3716078,21.31 20.4585098,20.9871875 20.401098,20.6565625 L19.7532549,16.8934375 C19.7256471,16.733125 19.7792941,16.5696875 19.8963137,16.4559375 L22.641098,13.790625 Z" id="Shape" fill="#FFFFFF" fill-rule="nonzero" mask="url(#mask-2)"></path>
                </g>
            </g>
        </g>
    </g>
</svg>