<?xml version="1.0" encoding="utf-8"?>
<!-- Generator: Adobe Illustrator 20.1.0, SVG Export Plug-In . SVG Version: 6.00 Build 0)  -->
<svg version="1.1" id="Livello_1" xmlns="http://www.w3.org/2000/svg" xmlns:xlink="http://www.w3.org/1999/xlink" x="0px" y="0px"
	 viewBox="0 0 17 10" style="enable-background:new 0 0 17 10;" xml:space="preserve">
<style type="text/css">
	.st0{filter:url(#Adobe_OpacityMaskFilter);}
	.st1{fill:#FFFFFF;}
	.st2{mask:url(#mask-2);fill:rgba(194, 194, 194, 1);}
</style>
<g id="Symbols">
	<g id="INPUT-BAR-TYPE-_x2F_-menu-corsi" transform="translate(-246.000000, -15.000000)">
		<g id="ARROW-SELECT" transform="translate(235.000000, 6.000000)">
			<g id="ICON-ARROW" transform="translate(11.000000, 9.000000)">
				<g id="Clip-2">
				</g>
				<defs>
					<filter id="Adobe_OpacityMaskFilter" filterUnits="userSpaceOnUse" x="5.5" y="0.2" width="6" height="9.5">
						<feColorMatrix  type="matrix" values="1 0 0 0 0  0 1 0 0 0  0 0 1 0 0  0 0 0 1 0"/>
					</filter>
				</defs>
				<mask maskUnits="userSpaceOnUse" x="5.5" y="0.2" width="6" height="9.5" id="mask-2">
					<g class="st0">
						<path id="path-1" class="st1" d="M6.1,1.6l3.3,3.3L6.1,8.3C6,8.3,6,8.4,6,8.5s0,0.1,0.1,0.2l0.4,0.4c0.1,0.1,0.1,0.1,0.2,0.1
							s0.1,0,0.2-0.1l4-4c0.1-0.1,0.1-0.1,0.1-0.2s0-0.1-0.1-0.2l-4-4C6.8,0.7,6.8,0.7,6.7,0.7s-0.1,0-0.2,0.1L6.1,1.2
							C6,1.3,6,1.3,6,1.4C6,1.5,6,1.5,6.1,1.6z"/>
					</g>
				</mask>
				<polygon id="Fill-1" class="st2" points="11.5,9.7 11.5,0.2 5.5,0.2 5.5,9.7 				"/>
			</g>
		</g>
	</g>
</g>
</svg>
