<?xml version="1.0" encoding="utf-8"?>
<!-- Generator: Adobe Illustrator 27.2.0, SVG Export Plug-In . SVG Version: 6.00 Build 0)  -->
<svg version="1.1" id="Layer_1" xmlns="http://www.w3.org/2000/svg" xmlns:xlink="http://www.w3.org/1999/xlink" x="0px" y="0px"
	 viewBox="0 0 30 30" style="enable-background:new 0 0 30 30;" xml:space="preserve">
<style type="text/css">
	.st0{fill:none;stroke:#000000;stroke-width:2;}
	.st1{enable-background:new    ;}
	.st2{fill:#999999;}
</style>
<g id="ELEMENTS">
	<g id="_x30_3-_x5F_-STYLEGUIDE---Icon-System" transform="translate(-559.000000, -257.000000)">
		<g id="STATUS-ICONS" transform="translate(559.000000, 257.000000)">
			<g id="STATUS-TYPE-_x2F_-iscritto">
				<g id="ISCRITTO-ICON">
					<circle id="Oval" class="st0" cx="15" cy="15" r="14"/>
				</g>
			</g>
		</g>
	</g>
</g>
<path class="st1" d="M0,0"/>
<path class="st1" d="M0,0"/>
<path class="st2" d="M24.1,20.6l-2.5-0.4L20.5,18c-0.1-0.2-0.5-0.2-0.6,0l-1.1,2.2l-2.5,0.4c-0.2,0-0.3,0.2-0.3,0.4
	c0,0.1,0,0.1,0.1,0.2l1.8,1.7l-0.4,2.4c0,0.2,0.1,0.3,0.3,0.4c0.1,0,0.1,0,0.2,0l2.3-1.1l2.3,1.1c0,0,0.1,0,0.1,0
	c0.2,0,0.3-0.1,0.3-0.3c0,0,0,0,0-0.1l-0.4-2.4l1.8-1.7c0.1-0.1,0.1-0.3,0-0.5C24.3,20.6,24.2,20.6,24.1,20.6L24.1,20.6z M21.9,22.5
	c-0.1,0.1-0.1,0.2-0.1,0.3l0.3,1.9l-1.8-0.9c-0.1,0-0.2,0-0.3,0l-1.8,0.9l0.3-1.9c0-0.1,0-0.2-0.1-0.3L17,21.1l2-0.3
	c0.1,0,0.2-0.1,0.2-0.2l0.9-1.8l0.9,1.8c0,0.1,0.1,0.2,0.2,0.2l2,0.3L21.9,22.5z"/>
<path class="st2" d="M14.7,13.3c-0.7,0.2-1.2,0.7-1.4,1.4H9.9c-0.3,0-0.5,0.2-0.5,0.5c0,0.3,0.2,0.5,0.5,0.5h3.5
	c0.3,1,1.4,1.6,2.4,1.3s1.6-1.4,1.3-2.4c-0.2-0.7-0.7-1.2-1.4-1.3V8.4c0-0.3-0.2-0.5-0.5-0.5c-0.3,0-0.5,0.2-0.5,0.5L14.7,13.3z
	 M16.1,15.2c0,0.5-0.4,1-1,1c-0.5,0-1-0.4-1-1c0-0.5,0.4-1,1-1c0,0,0,0,0,0C15.7,14.2,16.1,14.6,16.1,15.2L16.1,15.2z"/>
<path class="st2" d="M15.2,5.5c0.3,0,0.5-0.2,0.5-0.5c0,0,0,0,0,0V4.6c0-0.3-0.2-0.5-0.5-0.5c-0.3,0-0.5,0.2-0.5,0.5v0.5
	C14.7,5.3,14.9,5.5,15.2,5.5C15.2,5.5,15.2,5.5,15.2,5.5z"/>
<path class="st2" d="M25.7,15.7c0.3,0,0.5-0.2,0.5-0.5c0-0.3-0.2-0.5-0.5-0.5h-0.5c-0.3,0-0.5,0.2-0.5,0.5c0,0.3,0.2,0.5,0.5,0.5
	H25.7z"/>
<path class="st2" d="M4.6,14.7c-0.3,0-0.5,0.2-0.5,0.5c0,0.3,0.2,0.5,0.5,0.5H5c0.3,0,0.5-0.2,0.5-0.5c0-0.3-0.2-0.5-0.5-0.5H4.6z"
	/>
<path class="st2" d="M22.6,8.4L23,8c0.2-0.2,0.2-0.5,0-0.7c-0.2-0.2-0.5-0.2-0.7,0L22,7.7c-0.2,0.2-0.2,0.5,0,0.7
	C22.2,8.6,22.5,8.6,22.6,8.4L22.6,8.4z"/>
<path class="st2" d="M7.7,22l-0.3,0.3c-0.2,0.2-0.2,0.5,0,0.7c0.2,0.2,0.5,0.2,0.7,0l0,0l0.3-0.3c0.2-0.2,0.2-0.5,0-0.7
	C8.2,21.8,7.9,21.8,7.7,22z"/>
<path class="st2" d="M8.3,7.7L8,7.3c-0.2-0.2-0.5-0.2-0.7,0C7.1,7.5,7.1,7.8,7.3,8l0.3,0.3c0.2,0.2,0.5,0.2,0.7,0S8.5,7.9,8.3,7.7
	L8.3,7.7z"/>
</svg>
