<?xml version="1.0" encoding="utf-8"?>
<!-- Generator: Adobe Illustrator 27.2.0, SVG Export Plug-In . SVG Version: 6.00 Build 0)  -->
<svg version="1.1" id="Layer_1" xmlns="http://www.w3.org/2000/svg" xmlns:xlink="http://www.w3.org/1999/xlink" x="0px" y="0px"
	 viewBox="0 0 30 30" style="enable-background:new 0 0 30 30;" xml:space="preserve">
<style type="text/css">
	.st0{fill:#999999;}
	.st1{fill:none;stroke:#000000;stroke-width:2;}
	.st2{enable-background:new    ;}
</style>
<g id="ELEMENTS">
	<g id="_x30_3-_x5F_-STYLEGUIDE---Icon-System" transform="translate(-559.000000, -257.000000)">
		<g id="STATUS-ICONS" transform="translate(559.000000, 257.000000)">
			<g id="STATUS-TYPE-_x2F_-iscritto">
				<g id="ISCRITTO-ICON">
					<path class="st0" d="M21.7,25.4l-1.9-1.9c1.3-1.4,1.2-3.5-0.2-4.8c-1.4-1.3-3.5-1.2-4.8,0.2s-1.2,3.5,0.2,4.8
						c1.2,1.1,3,1.2,4.3,0.2l1.9,2c0.1,0.1,0.3,0.1,0.4,0C21.8,25.8,21.8,25.6,21.7,25.4C21.7,25.5,21.7,25.5,21.7,25.4z M14.6,21.2
						c0-1.5,1.2-2.7,2.7-2.7s2.7,1.2,2.7,2.7S18.8,24,17.3,24C15.8,24,14.6,22.8,14.6,21.2z"/>
					<path class="st0" d="M15,28c-0.3,0-0.6,0-1,0c-0.1,0-0.1,0-0.2,0c-0.3,0-0.6-0.1-1-0.1l0,0c-0.7-0.1-1.3-0.3-2-0.5l-0.1,0
						c-0.3-0.1-0.6-0.2-0.9-0.4l0,0c-0.3-0.1-0.6-0.3-0.9-0.4c0,0-0.1,0-0.1-0.1c-0.3-0.1-0.5-0.3-0.8-0.4C8,26,8,25.9,7.9,25.9
						c-0.2-0.2-0.5-0.3-0.7-0.5c0,0,0,0-0.1-0.1l0,0l4-2.2c0.7-0.4,1.1-1.1,1.1-1.9v-1.8l-0.1-0.1c0,0-1.1-1.4-1.5-3.2l0-0.2
						l-0.2-0.1c-0.2-0.2-0.4-0.4-0.4-0.7v-1.8c0-0.2,0.1-0.5,0.3-0.6l0.2-0.2V9.6l0-0.1c0,0-0.2-1.2,0.7-2.2c0.7-0.8,2-1.3,3.7-1.3
						s3,0.4,3.7,1.3c0.9,1,0.7,2.2,0.7,2.2l0,2.9l0.2,0.2c0.2,0.2,0.3,0.4,0.3,0.6v1.8c0,0.4-0.2,0.7-0.6,0.8
						c-0.3,0.1-0.4,0.4-0.3,0.6c0.1,0.3,0.4,0.4,0.6,0.3c0.8-0.2,1.3-1,1.3-1.8v-1.8c0-0.4-0.2-0.9-0.5-1.2V9.7c0-0.3,0.1-1.8-1-3
						c-0.9-1.1-2.5-1.6-4.5-1.6s-3.6,0.5-4.5,1.6c-1.1,1.2-1,2.7-1,3V12c-0.3,0.3-0.4,0.8-0.5,1.2v1.8c0,0.6,0.3,1.1,0.7,1.4
						c0.4,1.6,1.3,2.8,1.6,3.3v1.5c0,0.4-0.2,0.8-0.6,1l-4,2.2c-0.1,0.1-0.3,0.2-0.4,0.2C3.6,22.2,2,18.7,2,15C2,7.8,7.8,2,15,2
						s13,5.8,13,13c0,0.3,0.2,0.5,0.5,0.5S29,15.3,29,15c0-7.7-6.3-14-14-14S1,7.3,1,15c0,3.9,1.6,7.7,4.5,10.3l0,0L6,25.7
						c0,0,0.1,0,0.1,0.1c0.2,0.2,0.5,0.4,0.7,0.6c0.1,0.1,0.2,0.1,0.2,0.2c0.3,0.2,0.6,0.4,0.8,0.5c0.1,0,0.1,0.1,0.2,0.1
						c0.3,0.2,0.6,0.3,1,0.5l0.1,0c1.1,0.5,2.2,0.9,3.4,1.1l0.1,0c0.4,0.1,0.7,0.1,1.1,0.1l0.1,0c0.4,0,0.8,0.1,1.1,0.1
						c0.3,0,0.5-0.2,0.5-0.5C15.5,28.2,15.3,28,15,28L15,28L15,28z"/>
					<circle id="Oval" class="st1" cx="15" cy="15" r="14"/>
				</g>
			</g>
		</g>
	</g>
</g>
<path class="st2" d="M0,0"/>
<path class="st2" d="M0,0"/>
</svg>
