<?xml version="1.0" encoding="UTF-8"?>
<svg width="73px" height="90px" viewBox="0 0 73 90" version="1.1" xmlns="http://www.w3.org/2000/svg" xmlns:xlink="http://www.w3.org/1999/xlink">
    <title>Untitled</title>
    <g id="Page-1" stroke="none" stroke-width="1" fill="none" fill-rule="evenodd">
        <g id="icon-doc" fill="#000000" fill-rule="nonzero">
            <g id="Group">
                <path d="M71.6,20.1 C71.7,20.3 71.8,20.5 71.8,20.7 C71.8,20.4 71.7,20.2 71.6,20.1 Z M71.4,19.8 C71.5,19.9 71.5,19.9 71.6,20 C71.6,20 71.5,19.9 71.4,19.8 L71.4,19.8 Z" id="Shape"></path>
                <path d="M71.8,20.6 C71.8,20.4 71.7,20.2 71.6,20 C71.5,19.9 71.5,19.8 71.4,19.8 L52.1,0.5 C51.8,0.2 51.4,0 50.9,0 L1.7,0 C0.8,0 0.1,0.7 0.1,1.6 L0.1,88.4 C0.1,89.3 0.8,90 1.7,90 L70.3,90 C71.2,90 71.9,89.3 71.9,88.4 L71.9,20.9 C71.9,20.8 71.9,20.7 71.8,20.6 Z M52.5,5.4 L66.4,19.3 L52.5,19.3 L52.5,5.4 Z M68.7,86.8 L3.3,86.8 L3.3,3.2 L49.3,3.2 L49.3,21 C49.3,21.9 50,22.6 50.9,22.6 L68.7,22.6 L68.7,86.8 L68.7,86.8 Z" id="Shape"></path>
            </g>
            <path d="M31.8,35.6 L31.8,38.4 C31.8,39.3 31.1,40 30.2,40 C29.4,40 28.7,39.4 28.6,38.6 L26.7,38.6 L26.7,46.7 C27.5,46.8 28.1,47.5 28.1,48.3 C28.1,49.2 27.4,49.9 26.5,49.9 L23.7,49.9 C22.8,49.9 22.1,49.2 22.1,48.3 C22.1,47.5 22.7,46.8 23.5,46.7 L23.5,38.6 L21.1,38.6 C21,39.4 20.4,40 19.6,40 C18.7,40 18,39.3 18,38.4 L18,35.6 C18,34.7 18.7,34 19.6,34 C20.4,34 21.1,34.6 21.2,35.4 L28.7,35.4 C28.8,34.6 29.5,34 30.3,34 C31.1,34 31.8,34.8 31.8,35.6 Z" id="Path"></path>
            <path d="M52.4,56.8 L19.6,56.8 C18.7,56.8 18,56.1 18,55.2 C18,54.3 18.7,53.6 19.6,53.6 L52.5,53.6 C53.4,53.6 54.1,54.3 54.1,55.2 C54.1,56.1 53.3,56.8 52.4,56.8 Z" id="Path"></path>
            <path d="M52.4,63.4 L19.6,63.4 C18.7,63.4 18,62.7 18,61.8 C18,60.9 18.7,60.2 19.6,60.2 L52.5,60.2 C53.4,60.2 54.1,60.9 54.1,61.8 C54,62.7 53.3,63.4 52.4,63.4 Z" id="Path"></path>
            <path d="M52.4,43.3 L36,43.3 C35.1,43.3 34.4,42.6 34.4,41.7 C34.4,40.8 35.1,40.1 36,40.1 L52.4,40.1 C53.3,40.1 54,40.8 54,41.7 C54,42.6 53.3,43.3 52.4,43.3 Z" id="Path"></path>
            <path d="M52.4,49.9 L36,49.9 C35.1,49.9 34.4,49.2 34.4,48.3 C34.4,47.4 35.1,46.7 36,46.7 L52.4,46.7 C53.3,46.7 54,47.4 54,48.3 C54,49.2 53.3,49.9 52.4,49.9 Z" id="Path"></path>
        </g>
    </g>
</svg>