<?xml version="1.0" encoding="UTF-8"?>
<svg width="73px" height="90px" viewBox="0 0 73 90" version="1.1" xmlns="http://www.w3.org/2000/svg" xmlns:xlink="http://www.w3.org/1999/xlink">
    <title>Untitled</title>
    <g id="Page-1" stroke="none" stroke-width="1" fill="none" fill-rule="evenodd">
        <g id="icon-video" fill="#000000" fill-rule="nonzero">
            <g id="Group">
                <path d="M71.6,20.1 C71.7,20.3 71.8,20.5 71.8,20.7 C71.8,20.4 71.7,20.2 71.6,20.1 Z" id="Path"></path>
                <path d="M71.9,20.6 C71.9,20.4 71.8,20.2 71.7,20 C71.6,19.9 71.6,19.8 71.5,19.8 L52.1,0.5 C51.8,0.2 51.4,0 50.9,0 L1.7,0 C0.8,0 0.1,0.7 0.1,1.6 L0.1,88.4 C0.1,89.3 0.8,90 1.7,90 L70.3,90 C71.2,90 71.9,89.3 71.9,88.4 L71.9,20.9 C71.9,20.8 71.9,20.7 71.9,20.6 Z M52.5,5.4 L66.4,19.3 L52.5,19.3 L52.5,5.4 Z M68.7,86.8 L3.3,86.8 L3.3,3.2 L49.3,3.2 L49.3,21 C49.3,21.9 50,22.6 50.9,22.6 L68.7,22.6 L68.7,86.8 L68.7,86.8 Z" id="Shape"></path>
            </g>
            <path d="M32.6,56.6 C32.3,56.6 32.1,56.5 31.9,56.4 C31.3,56.2 31,55.6 31,55 L31,45.6 C31,45 31.3,44.5 31.9,44.2 C32.4,43.9 33.1,44 33.5,44.3 L40.4,49 C40.8,49.3 41.1,49.8 41.1,50.3 C41.1,50.8 40.8,51.3 40.4,51.6 L33.5,56.3 C33.2,56.5 32.9,56.6 32.6,56.6 Z M34.1,48.6 L34.1,52 L36.6,50.3 L34.1,48.6 Z" id="Shape"></path>
            <path d="M52.4,32.7 L19.6,32.7 C18.7,32.7 18,33.4 18,34.3 L18,61.8 C18,62.7 18.7,63.4 19.6,63.4 L52.5,63.4 C53.4,63.4 54.1,62.7 54.1,61.8 L54.1,34.3 C54,33.4 53.3,32.7 52.4,32.7 Z M21.1,35.9 L50.8,35.9 L50.8,37.7 L21.1,37.7 L21.1,35.9 Z M50.9,60.2 L21.1,60.2 L21.1,40.8 L50.8,40.8 L50.8,60.2 L50.9,60.2 Z" id="Shape"></path>
        </g>
    </g>
</svg>