<svg id="Livello_1" data-name="Livello 1" xmlns="http://www.w3.org/2000/svg" viewBox="0 0 47.76 60">
  <title>icon-glossary</title>
  <g>
    <path d="M.12,8.19V51.81A8.2,8.2,0,0,0,8.31,60H47.88V0H8.31A8.2,8.2,0,0,0,.12,8.19ZM45.88,58H8.31a6.19,6.19,0,0,1-6.19-6.19V15.4a8.16,8.16,0,0,0,6.19,2.84H45.88Zm0-41.76H8.31a6.19,6.19,0,0,1-6.19-6.19h0V8.19A6.19,6.19,0,0,1,8.31,2H45.88Z" transform="translate(-0.12)"/>
    <path d="M6.81,9.12a1,1,0,0,0,1,1H40.19a1,1,0,0,0,0-2H7.81A1,1,0,0,0,6.81,9.12Z" transform="translate(-0.12)"/>
    <path d="M16.94,48.81a1.35,1.35,0,0,0,1.28-.92L19.83,43a1.35,1.35,0,0,1,1.28-.92h5.64A1.35,1.35,0,0,1,28,43l1.66,4.9a1.35,1.35,0,0,0,1.28.91H31A1.35,1.35,0,0,0,32.34,47L26,28.34c-.19-.55-.7-2.2-1.28-2.2h-1.4c-.58,0-1.09,1.66-1.28,2.2L15.66,47a1.35,1.35,0,0,0,1.28,1.81ZM21.3,38.15l1.49-4.41c.41-1.3.76-2.6,1.08-3.87h.06c.32,1.24.63,2.51,1.11,3.9l1.49,4.37a1.35,1.35,0,0,1-1.28,1.78H22.58a1.35,1.35,0,0,1-1.28-1.77Z" transform="translate(-0.12)"/>
  </g>
</svg>
