<?xml version="1.0" encoding="UTF-8"?>
<svg width="73px" height="90px" viewBox="0 0 73 90" version="1.1" xmlns="http://www.w3.org/2000/svg" xmlns:xlink="http://www.w3.org/1999/xlink">
    <title>Untitled</title>
    <g id="Page-1" stroke="none" stroke-width="1" fill="none" fill-rule="evenodd">
        <g id="icon-zip" fill="#000000" fill-rule="nonzero">
            <g id="Group">
                <path d="M71.6,20.1 C71.7,20.3 71.8,20.5 71.8,20.7 C71.8,20.4 71.7,20.2 71.6,20.1 Z" id="Path"></path>
                <path d="M71.8,20.6 C71.8,20.4 71.7,20.2 71.6,20 C71.6,20 71.6,20 71.6,20 C71.5,19.9 71.5,19.8 71.4,19.8 L52.1,0.5 C51.8,0.2 51.4,0 50.9,0 L1.7,0 C0.8,0 0.1,0.7 0.1,1.6 L0.1,88.4 C0.1,89.3 0.8,90 1.7,90 L70.3,90 C71.2,90 71.9,89.3 71.9,88.4 L71.9,20.9 C71.9,20.8 71.9,20.7 71.8,20.6 Z M52.5,5.4 L66.4,19.3 L52.5,19.3 L52.5,5.4 Z M68.7,86.8 L3.3,86.8 L3.3,3.2 L49.3,3.2 L49.3,21 C49.3,21.9 50,22.6 50.9,22.6 L68.7,22.6 L68.7,86.8 L68.7,86.8 Z" id="Shape"></path>
            </g>
            <g id="Group" transform="translate(29.000000, 30.000000)">
                <path d="M7.1,31.5 C6.7,31.5 6.3,31.3 6,31 C5.7,30.7 5.5,30.3 5.5,29.9 C5.5,29.5 5.7,29.1 6,28.8 C6.6,28.2 7.7,28.2 8.3,28.8 C8.6,29.1 8.8,29.5 8.8,29.9 C8.8,30.3 8.6,30.7 8.3,31 C8,31.3 7.6,31.5 7.1,31.5 Z" id="Path"></path>
                <path d="M11.6,19.6 L8.7,19.6 L8.7,17.7 L10.8,17.7 C11.7,17.7 12.4,17 12.4,16.1 C12.4,15.2 11.7,14.5 10.8,14.5 L8.7,14.5 L8.7,12.2 L10.8,12.2 C11.7,12.2 12.4,11.5 12.4,10.6 C12.4,9.7 11.8,9 10.9,9 L8.8,9 L8.8,6.7 L10.9,6.7 C11.8,6.7 12.5,6 12.5,5.1 C12.5,4.2 11.8,3.5 10.9,3.5 L8.8,3.5 L8.8,2.3 C8.8,1.4 8.1,0.7 7.2,0.7 L3.5,0.7 C2.6,0.7 1.9,1.4 1.9,2.3 C1.9,3.2 2.6,3.9 3.5,3.9 L5.6,3.9 L5.6,6.2 L3.5,6.2 C2.6,6.2 1.9,6.9 1.9,7.8 C1.9,8.7 2.6,9.4 3.5,9.4 L5.6,9.4 L5.6,11.7 L3.5,11.7 C2.6,11.7 1.9,12.4 1.9,13.3 C1.9,14.2 2.6,14.9 3.5,14.9 L5.6,14.9 L5.6,19.6 L2.5,19.6 C1.6,19.6 0.9,20.3 0.9,21.2 L0.9,34.6 C0.9,35.5 1.6,36.2 2.5,36.2 L11.7,36.2 C12.6,36.2 13.3,35.5 13.3,34.6 L13.3,21.2 C13.2,20.4 12.5,19.6 11.6,19.6 Z M10,33 L4,33 L4,22.8 L10,22.8 L10,33 Z" id="Shape"></path>
            </g>
        </g>
    </g>
</svg>