<svg id="Livello_1" data-name="Livello 1" xmlns="http://www.w3.org/2000/svg" xmlns:xlink="http://www.w3.org/1999/xlink"
     viewBox="0 0 388.8 388.48">
    <defs>
        <style>.cls-1{fill:none;}.cls-2{clip-path:url(#clip-path);}</style>
        <clipPath id="clip-path" transform="translate(-285 -86.32)">
            <rect class="cls-1" x="285" y="86" width="388.8" height="389.76"/>
        </clipPath>
    </defs>
    <title>icon--options</title>
    <g class="cls-2">
        <path fill="rgba(102, 102, 102)" d="M673.56,263.12a27.22,27.22,0,0,0-23-26.72l-24.16-3.92a151.81,151.81,0,0,0-9.28-22.4l14.48-20.72a27.21,27.21,0,0,0-3.2-35L604.68,131a27.18,27.18,0,0,0-35-2.64c-.08.08-.16.08-.24.16l-91,68.08h-.88a84.17,84.17,0,0,0,1.92,168.32h1.92a84.18,84.18,0,0,0,77.12-113.12,14.4,14.4,0,0,0-27,9.92,55.37,55.37,0,0,1-50.72,74.4H479.4a55.37,55.37,0,0,1-1.6-110.72l5,.08a14.24,14.24,0,0,0,8.88-2.88l93.68-70.08L607.16,174l-13.92,19.84a28.37,28.37,0,0,0-1.92,29.2A123.55,123.55,0,0,1,599,241.52a28,28,0,0,0,22.4,19.28l23.28,3.76.24,31-24,4.24A28.22,28.22,0,0,0,599,319.2a129.78,129.78,0,0,1-7.6,18.48,28.12,28.12,0,0,0,2.24,29.44l13.84,19.12L586,408.08l-19.84-13.92a28.53,28.53,0,0,0-29.28-1.92,118.51,118.51,0,0,1-17.68,7.44A28.19,28.19,0,0,0,500,422.08l-3.76,23.68-31,.24-4.16-23.6a28.28,28.28,0,0,0-19.44-22.08,126.85,126.85,0,0,1-18.72-7.52A28.19,28.19,0,0,0,393.64,395L374.2,409.12,352.36,387.6l13.76-19.68A28.19,28.19,0,0,0,368,338.64a136.16,136.16,0,0,1-7.84-18.56A28.32,28.32,0,0,0,337.8,301l-23.68-3.76-.32-30.8,23.76-4.16a28.29,28.29,0,0,0,22.08-19.44,126.88,126.88,0,0,1,7.52-18.72,28.2,28.2,0,0,0-2.24-29.28l-14.08-19.44,21.52-21.84L392,167.2A28.27,28.27,0,0,0,421.4,169a116.78,116.78,0,0,1,19-7.92A28.16,28.16,0,0,0,460,138.56l3.76-23.2,32.32-.24a14.4,14.4,0,0,0-.08-28.8h-.08l-33.6.24a27.22,27.22,0,0,0-26.72,23l-3.92,24.08a145.55,145.55,0,0,0-23.36,9.76L387.8,129a27.21,27.21,0,0,0-35,3.2L329.4,156a27.18,27.18,0,0,0-2.64,35l14.56,20.24a158.4,158.4,0,0,0-9.12,22.56l-24.48,4.4h-.08A27.93,27.93,0,0,0,285,264.32V265l.24,33.6a27.22,27.22,0,0,0,23,26.72l24.56,3.92a154,154,0,0,0,9.44,22.4l-14.32,20.48a27.21,27.21,0,0,0,3.2,35l23.76,23.44a27.27,27.27,0,0,0,35,2.64l20.24-14.56a158.16,158.16,0,0,0,22.56,9.12L437,452.32a27.22,27.22,0,0,0,26.88,22.48h.24l33.6-.24a27.22,27.22,0,0,0,26.72-23L528.36,427a167.13,167.13,0,0,0,21.44-9l20.72,14.48a27.2,27.2,0,0,0,35-3.2l23.44-23.76a27.08,27.08,0,0,0,2.64-35l-14.4-19.92a167.7,167.7,0,0,0,9.28-22.4l24.88-4.4a27.17,27.17,0,0,0,22.48-27Zm0,0"
              transform="translate(-285 -86.32)"/>
    </g>
</svg>