<?xml version="1.0" encoding="utf-8"?>
<!-- Generator: Adobe Illustrator 19.2.0, SVG Export Plug-In . SVG Version: 6.00 Build 0)  -->
<svg version="1.1" id="Livello_1" xmlns="http://www.w3.org/2000/svg" xmlns:xlink="http://www.w3.org/1999/xlink" x="0px" y="0px"
	 viewBox="0 0 395 370.7" style="enable-background:new 0 0 395 370.7;" xml:space="preserve">
<style type="text/css">
	.st0{fill:#FF6C00;}
	.st1{fill:none;}
</style>
<title>cart</title>
<path class="st0" d="M151.9,331.2c0,21.8-17.7,39.5-39.5,39.5S72.9,353,72.9,331.2s17.7-39.5,39.5-39.5S151.9,309.5,151.9,331.2z
	 M355.5,291.8c-21.8,0-39.5,17.7-39.5,39.5s17.7,39.5,39.5,39.5S395,353,395,331.2S377.3,291.8,355.5,291.8z M392.5,176.2l-313.4,48
	c1.2,10.7,10.2,19,21.2,19H392c1.7,0,3,1.3,3,3v24.3c0,1.7-1.3,3-3,3H100.2c-28.5,0-51.6-23.2-51.6-51.6c0-15.2,6.6-29.4,18.1-39.2
	L49,30.3H3c-1.7,0-3-1.3-3-3V3c0-1.7,1.3-3,3-3h72.9c14,0,25.6,10.7,27.1,24.3H392c1.7,0,3,1.3,3,3v145.9
	C395,174.7,393.9,175.9,392.5,176.2z M96.9,180.1l1.7,10.4l266.1-40.7V54.6H82.3L96.9,180.1z"/>
<rect x="336.9" y="-61.6" class="st1" width="388.8" height="389.8"/>
</svg>
