<?xml version="1.0" encoding="UTF-8"?>
<svg width="26px" height="22px" viewBox="0 0 26 22" version="1.1" xmlns="http://www.w3.org/2000/svg" xmlns:xlink="http://www.w3.org/1999/xlink">
    <!-- Generator: Sketch 52.6 (67491) - http://www.bohemiancoding.com/sketch -->
    <title>icons/classroom</title>
    <desc>Created with Sketch.</desc>
    <g id="Symbols" stroke="none" stroke-width="1" fill="none" fill-rule="evenodd">
        <g id="mobile/components/course-item" transform="translate(-321.000000, 0.000000)" fill="#007CC8">
            <g id="components/course-item">
                <g id="icons/classroom" transform="translate(321.000000, 0.000000)">
                    <g id="Group">
                        <path d="M5.78030769,6.28567123 C6.66615385,6.28567123 7.42230769,5.97887671 8.04892308,5.3649863 C8.67569231,4.75109589 8.98907692,4.01032877 8.98907692,3.14283562 C8.98907692,2.27534247 8.67569231,1.53457534 8.04892308,0.920684932 C7.42230769,0.306794521 6.66615385,-0.000150684932 5.78030769,-0.000150684932 C4.89446154,-0.000150684932 4.13830769,0.306794521 3.51153846,0.920684932 C2.88492308,1.53457534 2.57153846,2.27519178 2.57153846,3.14283562 C2.57153846,4.01047945 2.88492308,4.75109589 3.51153846,5.3649863 C4.13830769,5.97872603 4.89446154,6.28567123 5.78030769,6.28567123 L5.78030769,6.28567123 Z" id="Shape"></path>
                        <path d="M9.59692308,11.1904658 C10.5369231,12.111 11.6712308,12.5714932 13,12.5714932 C14.3287692,12.5714932 15.4630769,12.111 16.4030769,11.1904658 C17.3430769,10.2694795 17.8130769,9.15847945 17.8130769,7.85716438 C17.8130769,6.55584932 17.3430769,5.44484932 16.4030769,4.5240137 C15.4630769,3.60317808 14.3287692,3.14283562 13,3.14283562 C11.6712308,3.14283562 10.5369231,3.60332877 9.59692308,4.5240137 C8.65692308,5.44469863 8.18676923,6.55569863 8.18676923,7.85716438 C8.18676923,9.15863014 8.65692308,10.2696301 9.59692308,11.1904658 L9.59692308,11.1904658 Z" id="Shape"></path>
                        <path d="M20.22,6.28567123 C21.1055385,6.28567123 21.8618462,5.97887671 22.4886154,5.3649863 C23.1152308,4.75109589 23.4284615,4.01032877 23.4284615,3.14283562 C23.4284615,2.27534247 23.1152308,1.53457534 22.4886154,0.920684932 C21.8618462,0.306794521 21.1055385,-0.000150684932 20.22,-0.000150684932 C19.334,-0.000150684932 18.5778462,0.306794521 17.9510769,0.920684932 C17.3246154,1.53457534 17.0112308,2.27519178 17.0112308,3.14283562 C17.0112308,4.01047945 17.3246154,4.75109589 17.9510769,5.3649863 C18.5778462,5.97872603 19.334,6.28567123 20.22,6.28567123 L20.22,6.28567123 Z" id="Shape"></path>
                        <path d="M23.4786154,6.28582192 C23.4286154,6.28582192 23.2469231,6.37171233 22.9335385,6.54364384 C22.6203077,6.71557534 22.2127692,6.88946575 21.7115385,7.06546575 C21.2103077,7.24131507 20.7129231,7.32931507 20.22,7.32931507 C19.66,7.32931507 19.1046154,7.23528767 18.5529231,7.04693151 C18.5946154,7.34965753 18.6155385,7.61983562 18.6155385,7.85716438 C18.6155385,8.99483562 18.2770769,10.0423973 17.6,11 C18.9538462,11.0409863 20.0609231,11.5647671 20.9218462,12.5716438 L22.6013846,12.5716438 C23.2866154,12.5716438 23.8632308,12.405589 24.3310769,12.0742329 C24.7989231,11.7428767 25.0329231,11.2578219 25.0329231,10.6195205 C25.0330769,7.73028767 24.5150769,6.28567123 23.4786154,6.28582192 L23.4786154,6.28582192 Z" id="Shape"></path>
                        <path d="M21.6052308,16.2114384 C21.5175385,15.7325616 21.4066154,15.2884932 21.2729231,14.8793836 C21.1392308,14.4701233 20.9595385,14.0712603 20.7341538,13.6824932 C20.5084615,13.2938767 20.2493846,12.9622192 19.9567692,12.6879726 C19.6641538,12.413726 19.3069231,12.1949315 18.8850769,12.031137 C18.4630769,11.8674932 17.9970769,11.7856712 17.4875385,11.7856712 C17.4038462,11.7856712 17.2243077,11.8736712 16.9484615,12.0496712 C16.6726154,12.2255205 16.3678462,12.4221644 16.0335385,12.6388493 C15.6992308,12.8555342 15.2524615,13.0520274 14.6923077,13.2280274 C14.1321538,13.4040274 13.5681538,13.4920274 13.0001538,13.4920274 C12.432,13.4920274 11.8678462,13.4040274 11.308,13.2280274 C10.748,13.0520274 10.3010769,12.8555342 9.96676923,12.6388493 C9.63246154,12.4221644 9.32753846,12.2255205 9.05184615,12.0496712 C8.776,11.8736712 8.59646154,11.7856712 8.51276923,11.7856712 C8.00307692,11.7856712 7.53723077,11.8674932 7.11523077,12.031137 C6.69323077,12.1949315 6.336,12.413726 6.04353846,12.6879726 C5.75092308,12.9620685 5.492,13.2938767 5.26630769,13.6824932 C5.04076923,14.0712603 4.86107692,14.4699726 4.72738462,14.8793836 C4.59369231,15.2884932 4.48307692,15.7325616 4.39523077,16.2114384 C4.30738462,16.6903151 4.24892308,17.1361918 4.21969231,17.5496712 C4.19046154,17.963 4.17584615,18.3865753 4.17584615,18.8203973 C4.17584615,19.802411 4.48076923,20.5779863 5.09076923,21.1466712 C5.70092308,21.7153562 6.51153846,21.9998493 7.52246154,21.9998493 L18.4775385,21.9998493 C19.4886154,21.9998493 20.2990769,21.7153562 20.9093846,21.1466712 C21.5193846,20.5779863 21.8243077,19.802411 21.8243077,18.8203973 C21.8243077,18.3865753 21.8095385,17.9631507 21.7807692,17.5496712 C21.7512308,17.1361918 21.6927692,16.6903151 21.6052308,16.2114384 L21.6052308,16.2114384 Z" id="Shape"></path>
                        <path d="M8.39984615,11 C7.72292308,10.0423973 7.38461538,8.99483562 7.38476923,7.85716438 C7.38476923,7.61983562 7.40569231,7.34980822 7.44738462,7.04693151 C6.89584615,7.23513699 6.34015385,7.32931507 5.78030769,7.32931507 C5.28723077,7.32931507 4.79015385,7.24131507 4.28876923,7.06546575 C3.78753846,6.88946575 3.38,6.71557534 3.06676923,6.54364384 C2.75338462,6.37171233 2.57153846,6.28582192 2.52138462,6.28582192 C1.48523077,6.28582192 0.967076923,7.73043836 0.967076923,10.6195205 C0.967076923,11.2578219 1.20107692,11.7428767 1.66892308,12.0742329 C2.13692308,12.405589 2.71353846,12.5714932 3.39861538,12.5714932 L5.07830769,12.5714932 C5.93907692,11.5647671 7.04615385,11.0409863 8.39984615,11 L8.39984615,11 Z" id="Shape"></path>
                    </g>
                </g>
            </g>
        </g>
    </g>
</svg>