<svg viewBox="0 0 24 24" xmlns="http://www.w3.org/2000/svg" xmlns:xlink="http://www.w3.org/1999/xlink">
<path fill="#FFF" d="M21.1,2.9H2.9C1.3,2.9,0,4.2,0,5.8v12.4c0,1.6,1.3,2.9,2.9,2.9h18.1c1.6,0,2.9-1.3,2.9-2.9V5.8
	C24,4.2,22.7,2.9,21.1,2.9z M22.7,18.2c0,0.9-0.7,1.6-1.6,1.6H2.9c-0.9,0-1.6-0.7-1.6-1.6V5.8c0-0.9,0.7-1.6,1.6-1.6h18.1
	c0.9,0,1.6,0.7,1.6,1.6L22.7,18.2L22.7,18.2z M15.1,11.8L21,6.6c0.3-0.2,0.3-0.7,0-0.9c-0.2-0.3-0.7-0.3-0.9,0L12,12.8l-1.6-1.4
	c0,0,0,0,0,0c0,0-0.1-0.1-0.1-0.1L3.9,5.6C3.6,5.4,3.2,5.4,2.9,5.7C2.7,5.9,2.7,6.4,3,6.6l5.9,5.3L3,17.4c-0.3,0.3-0.3,0.7,0,0.9
	c0.1,0.1,0.3,0.2,0.5,0.2c0.2,0,0.3-0.1,0.5-0.2l6-5.6l1.6,1.4c0.1,0.1,0.3,0.2,0.4,0.2s0.3-0.1,0.4-0.2l1.7-1.5l6,5.7
	c0.1,0.1,0.3,0.2,0.5,0.2c0.2,0,0.4-0.1,0.5-0.2c0.3-0.3,0.2-0.7,0-0.9L15.1,11.8z"/>
</svg>
