<svg width="14px" height="6px" viewBox="0 0 14 6" version="1.1" xmlns="http://www.w3.org/2000/svg" xmlns:xlink="http://www.w3.org/1999/xlink">
    <g id="05-MOD-v2" stroke="none" stroke-width="1" fill="none" fill-rule="evenodd" opacity="0.699125744">
        <g id="desktop---view1" transform="translate(-528.000000, -383.000000)" fill="#404040">
            <path d="M538.807921,383.06287 C538.721407,382.995167 538.626937,382.982125 538.524313,383.02384 C538.42169,383.065555 538.370278,383.141026 538.370278,383.250444 L538.370278,385.000564 L528.259245,385.000564 C528.183569,385.000564 528.121418,385.023963 528.072891,385.070856 C528.024363,385.11775 528,385.177686 528,385.250567 L528,386.750683 C528,386.823565 528.024264,386.883501 528.072891,386.930298 C528.121518,386.977096 528.183669,387.000495 528.259245,387.000495 L538.370378,387.000495 L538.370378,388.750614 C538.370378,388.85495 538.421889,388.930421 538.524413,388.977219 C538.627136,389.01903 538.721606,389.003207 538.80812,388.930421 L541.919154,386.164465 C541.973151,386.112393 542,386.049964 542,385.976987 C542,385.909379 541.972952,385.84954 541.918955,385.797468 L538.807921,383.06287 Z" id="Shape"></path>
        </g>
    </g>
</svg>