<?xml version="1.0" encoding="UTF-8"?>
<svg width="9px" height="5px" viewBox="0 0 9 5" version="1.1" xmlns="http://www.w3.org/2000/svg" xmlns:xlink="http://www.w3.org/1999/xlink">
    <defs>
        <path d="M5.38724304,1.85416696 L2.22827756,4.85527765 L-0.930589269,1.85426069 C-0.984159483,1.80327208 -1.04581949,1.77787151 -1.11547063,1.77787151 C-1.18512178,1.77787151 -1.24678179,1.80327208 -1.300352,1.85426069 L-1.70217793,2.23601914 C-1.7558468,2.28691402 -1.78258258,2.34549468 -1.78258258,2.41166739 C-1.78258258,2.47784011 -1.75574815,2.53642077 -1.70217793,2.58731565 L2.04339619,6.14592677 C2.09696641,6.19682165 2.15862641,6.22222222 2.22827756,6.22222222 C2.2979287,6.22222222 2.35949005,6.19682165 2.41306027,6.14592677 L6.1588317,2.58731565 C6.21240192,2.53642077 6.23903904,2.47784011 6.23903904,2.41166739 C6.23903904,2.34549468 6.21240192,2.28691402 6.1588317,2.23592541 L5.75700577,1.85416696 C5.70343555,1.80317835 5.64177555,1.77777778 5.57202575,1.77777778 C5.50247326,1.77777778 5.44081325,1.80317835 5.38724304,1.85416696 Z" id="path-1"></path>
    </defs>
    <g id="00-STYLEGUIDE" stroke="none" stroke-width="1" fill="none" fill-rule="evenodd">
        <g id="05-_-STYLEGUIDE---Top-bar" transform="translate(-392.000000, -1101.000000)">
            <g id="TOP-BAR-MOB-close" transform="translate(243.000000, 813.000000)">
                <g id="BT-OPEN-PN" transform="translate(29.078378, 282.000000)">
                    <g id="ARROW-UP" transform="translate(124.335135, 8.222222) rotate(-90.000000) translate(-124.335135, -8.222222) translate(122.106907, 4.222222)">
                        <mask id="mask-2" fill="white">
                            <use xlink:href="#path-1"></use>
                        </mask>
                        <g id="Clip-2" transform="translate(2.228228, 4.000000) rotate(90.000000) translate(-2.228228, -4.000000) "></g>
                        <polygon id="Fill-1" fill="#FF6C00" mask="url(#mask-2)" transform="translate(2.035124, 4.186642) rotate(90.000000) translate(-2.035124, -4.186642) " points="-2.67912991 7.11070709 6.74937871 7.11070709 6.74937871 1.26257746 -2.67912991 1.26257746"></polygon>
                    </g>
                </g>
            </g>
        </g>
    </g>
</svg>